<?xml version="1.0" encoding="UTF-8" standalone="no"?>
<!DOCTYPE svg PUBLIC "-//W3C//DTD SVG 1.1//EN" "http://www.w3.org/Graphics/SVG/1.1/DTD/svg11.dtd">
<svg width="100%" height="100%" viewBox="0 0 980 980" version="1.1" xmlns="http://www.w3.org/2000/svg" xmlns:xlink="http://www.w3.org/1999/xlink" xml:space="preserve" xmlns:serif="http://www.serif.com/" style="fill-rule:evenodd;clip-rule:evenodd;stroke-linecap:round;stroke-linejoin:round;stroke-miterlimit:1.5;">
    <g transform="matrix(1,0,0,1,-3579,-232)">
        <g id="Plan-de-travail2" serif:id="Plan de travail2" transform="matrix(0.868025,0,0,0.996979,2818.61,52.5437)">
            <rect x="876" y="180" width="1129" height="982.969" style="fill:none;"/>
            <g transform="matrix(1.15204,0,0,1.00303,-3247.15,-52.7029)">
                <path d="M4063.6,340C4272.23,340 4441.6,509.376 4441.6,718C4441.6,926.624 4272.23,1096 4063.6,1096C3854.98,1096 3685.6,926.624 3685.6,718C3685.6,509.376 3854.98,340 4063.6,340ZM3881.12,816.987C3917.49,885.509 3978.2,926.473 4063.6,928C4146.94,929.49 4206.81,884.834 4248.9,816.639L3881.12,816.987ZM3880.72,619.751L4245.24,617.476C4200.57,549.528 4148.05,511.544 4068.16,511C3973.36,510.355 3919.22,553.523 3880.72,619.751Z" style="fill:rgb(140,227,136);stroke:rgb(140,227,136);stroke-width:4px;"/>
            </g>
            <g transform="matrix(0.837965,0,0,0.729578,-1977.81,101.229)">
                <g transform="matrix(0.566575,-0.82401,0.82401,0.566575,1340.97,3363.02)">
                    <path d="M3600.62,402.989L3607.68,390.754L3651.62,308.002L3656.3,298.742C3657.66,296.023 3659.56,292.115 3661.99,287.017C3671.96,287.13 3679.24,287.187 3683.83,287.187C3691.81,287.187 3699.2,287.13 3706,287.017L3718.39,322.446L3743.61,390.584L3748.54,402.989C3738.73,402.875 3732.77,402.819 3730.68,402.819C3725.91,402.819 3718.91,402.875 3709.67,402.989C3707.18,393.643 3703.59,382.655 3698.9,370.024L3656.13,370.024C3651.21,379.993 3646.11,390.981 3640.85,402.989C3630.3,402.875 3623.84,402.819 3621.46,402.819C3617.15,402.819 3610.2,402.875 3600.62,402.989ZM3666.4,345.3L3692.79,345.3C3686.23,325.341 3682.64,314.343 3682.02,312.307C3678.28,320.619 3675.12,327.433 3672.51,332.747L3666.4,345.3Z" style="fill:white;fill-rule:nonzero;"/>
                </g>
                <g transform="matrix(0.764253,-0.644916,0.644916,0.764253,670.531,2612.79)">
                    <path d="M3749.1,402.989L3750.78,381.239L3752.98,338.758L3753.91,308.682C3753.96,305.453 3753.99,302.225 3753.99,298.996C3753.99,296.561 3753.96,292.568 3753.91,287.017C3761.39,287.187 3767.39,287.272 3771.93,287.272C3776.29,287.272 3782.26,287.144 3789.86,286.889C3797.45,286.635 3803.88,286.507 3809.15,286.507C3816.74,286.507 3822.37,286.989 3826.02,287.952C3829.68,288.914 3832.98,290.43 3835.92,292.497C3838.87,294.564 3841.31,296.986 3843.23,299.761C3845.16,302.536 3846.6,305.694 3847.57,309.234C3848.53,312.774 3849.01,316.385 3849.01,320.067C3849.01,327.657 3847.17,334.595 3843.49,340.882C3839.81,347.169 3834.62,351.87 3827.94,354.986C3821.26,358.101 3813.75,359.659 3805.43,359.659C3802.37,359.659 3798.83,359.319 3794.81,358.639C3794.35,356.034 3793.5,352.154 3792.26,346.999C3791.01,341.845 3789.99,338.022 3789.2,335.53C3791.69,336.039 3794.3,336.294 3797.02,336.294C3802.74,336.294 3807,334.921 3809.8,332.174C3812.61,329.427 3814.01,326.071 3814.01,322.106C3814.01,320.18 3813.7,318.467 3813.07,316.966C3812.45,315.465 3811.46,314.233 3810.1,313.27C3808.74,312.307 3807.24,311.684 3805.6,311.401C3803.95,311.118 3802.09,310.976 3799.99,310.976C3797.95,310.976 3795.83,311.033 3793.62,311.146L3786.48,311.656C3785.75,322.587 3785.19,334.737 3784.8,348.104C3784.07,372.459 3783.71,387.073 3783.71,391.944L3783.71,402.989L3766.78,402.819C3764.4,402.819 3758.51,402.875 3749.1,402.989Z" style="fill:white;fill-rule:nonzero;"/>
                </g>
                <g transform="matrix(0.890764,-0.454466,0.454466,0.890764,257.124,1835.46)">
                    <path d="M3851.44,402.989L3853.13,381.239L3855.32,338.758L3856.25,308.682C3856.31,305.453 3856.34,302.225 3856.34,298.996C3856.34,296.561 3856.31,292.568 3856.25,287.017C3863.73,287.187 3869.74,287.272 3874.27,287.272C3878.63,287.272 3884.61,287.144 3892.2,286.889C3899.79,286.635 3906.23,286.507 3911.5,286.507C3919.09,286.507 3924.71,286.989 3928.37,287.952C3932.02,288.914 3935.32,290.43 3938.27,292.497C3941.21,294.564 3943.65,296.986 3945.58,299.761C3947.5,302.536 3948.95,305.694 3949.91,309.234C3950.87,312.774 3951.36,316.385 3951.36,320.067C3951.36,327.657 3949.51,334.595 3945.83,340.882C3942.15,347.169 3936.97,351.87 3930.29,354.986C3923.6,358.101 3916.1,359.659 3907.77,359.659C3904.71,359.659 3901.17,359.319 3897.15,358.639C3896.7,356.034 3895.85,352.154 3894.6,346.999C3893.36,341.845 3892.34,338.022 3891.54,335.53C3894.04,336.039 3896.64,336.294 3899.36,336.294C3905.08,336.294 3909.34,334.921 3912.15,332.174C3914.95,329.427 3916.35,326.071 3916.35,322.106C3916.35,320.18 3916.04,318.467 3915.42,316.966C3914.79,315.465 3913.8,314.233 3912.44,313.27C3911.09,312.307 3909.58,311.684 3907.94,311.401C3906.3,311.118 3904.43,310.976 3902.33,310.976C3900.29,310.976 3898.17,311.033 3895.96,311.146L3888.83,311.656C3888.1,322.587 3887.54,334.737 3887.14,348.104C3886.41,372.459 3886.05,387.073 3886.05,391.944L3886.05,402.989L3869.13,402.819C3866.75,402.819 3860.85,402.875 3851.44,402.989Z" style="fill:white;fill-rule:nonzero;"/>
                </g>
                <g transform="matrix(0.981429,-0.191824,0.191824,0.981429,1.98115,768.145)">
                    <path d="M3953.28,402.989C3954.36,393.02 3955.21,384.042 3955.83,376.056C3956.46,368.07 3957,358.809 3957.45,348.274C3957.91,337.739 3958.25,326.623 3958.47,314.927C3958.7,303.23 3958.82,293.927 3958.82,287.017C3965.89,287.187 3971.61,287.272 3975.97,287.272C3980.5,287.272 3986.03,287.144 3992.54,286.889C3999.05,286.635 4005.39,286.507 4011.57,286.507C4018.82,286.507 4025.27,286.79 4030.94,287.357C4035.18,287.753 4039.05,288.575 4042.53,289.821C4046.01,291.067 4048.95,292.582 4051.32,294.366C4053.7,296.15 4055.68,298.147 4057.27,300.356C4058.85,302.565 4060.09,305.156 4060.96,308.13C4061.84,311.103 4062.28,314.289 4062.28,317.688C4062.28,321.483 4061.8,325.037 4060.84,328.35C4059.87,331.664 4058.36,334.779 4056.29,337.696C4054.22,340.613 4051.62,343.134 4048.47,345.258C4045.33,347.382 4040.93,349.548 4035.26,351.757L4039.68,362.547C4040.93,365.549 4042.26,368.608 4043.68,371.723L4055.06,396.617C4055.57,397.693 4056.47,399.817 4057.78,402.989C4048.44,402.875 4042.16,402.819 4038.93,402.819C4034.86,402.819 4028.18,402.875 4018.89,402.989C4017.99,400.043 4016.34,394.577 4013.96,386.591C4013,383.249 4012.17,380.672 4011.49,378.86C4010.13,374.838 4008.12,369.202 4005.45,361.952L3996.69,337.909C3999.75,338.475 4002.75,338.758 4005.7,338.758C4009.83,338.758 4013.59,338.135 4016.95,336.889C4020.33,335.643 4022.87,333.717 4024.6,331.112C4026.33,328.506 4027.19,325.759 4027.19,322.87C4027.19,320.435 4026.54,318.297 4025.24,316.456C4023.93,314.615 4021.88,313.242 4019.08,312.335C4016.28,311.429 4011.96,310.976 4006.12,310.976C4004.14,310.976 4002.09,311.018 3999.96,311.103C3997.84,311.188 3995.36,311.259 3992.53,311.316C3991.8,322.927 3991.16,337.087 3990.6,353.796C3990.04,370.505 3989.68,386.903 3989.51,402.989C3980.04,402.875 3973.89,402.819 3971.05,402.819C3967.76,402.819 3961.84,402.875 3953.28,402.989Z" style="fill:white;fill-rule:nonzero;"/>
                </g>
                <g transform="matrix(0.986464,0.163976,-0.163976,0.986464,122.561,-677.35)">
                    <path d="M4136.84,284.808C4145.9,284.808 4154.63,286.026 4163.01,288.461C4171.39,290.897 4178.73,294.791 4185.02,300.143C4191.3,305.496 4196,311.656 4199.12,318.622C4202.23,325.589 4203.79,333.604 4203.79,342.666C4203.79,352.182 4202.08,360.919 4198.65,368.877C4195.23,376.835 4190.28,383.589 4183.83,389.14C4177.37,394.691 4169.67,398.755 4160.72,401.332C4151.77,403.909 4142.45,405.198 4132.77,405.198C4123.19,405.198 4114.02,403.937 4105.24,401.417C4096.46,398.896 4088.83,394.818 4082.34,389.182C4075.86,383.547 4071.25,377.274 4068.53,370.364C4065.82,363.453 4064.46,355.779 4064.46,347.339C4064.46,334.935 4067.33,324.046 4073.08,314.672C4078.83,305.298 4087.35,297.977 4098.65,292.709C4109.95,287.442 4122.68,284.808 4136.84,284.808ZM4135.31,310.381C4128.8,310.381 4122.91,311.981 4117.64,315.181C4112.37,318.382 4108.32,322.828 4105.49,328.52C4102.66,334.213 4101.24,340.316 4101.24,346.829C4101.24,352.833 4102.53,358.327 4105.11,363.312C4107.69,368.296 4111.61,372.19 4116.88,374.994C4122.14,377.798 4127.72,379.2 4133.61,379.2C4139.9,379.2 4145.66,377.628 4150.9,374.484C4156.14,371.341 4160.14,366.923 4162.88,361.23C4165.63,355.538 4167,349.577 4167,343.346C4167,337.285 4165.73,331.692 4163.18,326.566C4160.63,321.44 4156.89,317.461 4151.97,314.629C4147.04,311.797 4141.49,310.381 4135.31,310.381Z" style="fill:white;fill-rule:nonzero;"/>
                </g>
                <g transform="matrix(0.910721,0.413023,-0.413023,0.910721,527.184,-1693.66)">
                    <path d="M4239.55,402.989L4236.41,392.623L4215.66,332.896L4199.34,287.017C4207.04,287.13 4213.88,287.187 4219.88,287.187C4223.56,287.187 4229.33,287.13 4237.2,287.017C4238.5,292.061 4239.52,295.887 4240.26,298.495C4241.28,301.896 4243.21,308.046 4246.05,316.944L4258.56,357.159C4259.81,361.354 4261.34,366.824 4263.16,373.568L4267.06,363.791L4296.69,298.834C4297.2,297.644 4297.78,296.284 4298.43,294.754C4299.08,293.224 4300.11,290.645 4301.53,287.017C4309.74,287.13 4316.35,287.187 4321.33,287.187C4324.45,287.187 4330.63,287.13 4339.86,287.017C4334.09,297.779 4327.55,310.353 4320.25,324.74L4290.95,382.853C4288.12,388.517 4284.95,395.229 4281.44,402.989C4271.93,402.875 4265.13,402.819 4261.05,402.819C4257.26,402.819 4250.09,402.875 4239.55,402.989Z" style="fill:white;fill-rule:nonzero;"/>
                </g>
                <g transform="matrix(0.733609,0.679572,-0.679572,0.733609,1388.02,-2778.66)">
                    <path d="M4330.99,402.989C4332.41,388.375 4333.45,376.141 4334.1,366.285C4334.76,356.43 4335.41,343.332 4336.06,326.991C4336.72,310.65 4337.04,299.818 4337.04,294.494L4336.96,287.017C4350.32,287.13 4366.49,287.187 4385.46,287.187C4402.96,287.187 4418.4,287.13 4431.76,287.017L4431.59,289.811C4431.53,290.488 4431.39,292.944 4431.16,297.178L4430.65,306.408C4430.54,308.384 4430.48,310.388 4430.48,312.42C4419.55,311.967 4410.38,311.741 4402.96,311.741C4394.8,311.741 4389.29,311.755 4386.43,311.783C4383.57,311.811 4379.11,311.939 4373.05,312.165L4372.02,331.706C4378.7,331.876 4386.49,331.961 4395.39,331.961C4398.56,331.961 4407,331.763 4420.71,331.367C4420.15,338.617 4419.61,347.254 4419.1,357.28C4409.31,357.166 4401.78,357.11 4396.52,357.11C4388.7,357.11 4379.96,357.308 4370.28,357.704L4369.27,378.35L4379.03,378.35C4381.92,378.35 4387.89,378.265 4396.94,378.095L4414.52,377.67C4417.12,377.614 4421.48,377.387 4427.6,376.991C4426.92,385.373 4426.35,394.039 4425.9,402.989C4412.08,402.875 4396.93,402.819 4380.44,402.819L4343.06,402.904L4330.99,402.989Z" style="fill:white;fill-rule:nonzero;"/>
                </g>
                <g transform="matrix(0.503293,0.864116,-0.864116,0.503293,2482.78,-3509.23)">
                    <path d="M4437.25,402.989C4438.5,390.075 4439.36,379.738 4439.81,371.978C4440.5,360.423 4441.18,345.47 4441.86,327.119C4442.38,313.072 4442.63,303.018 4442.63,296.957L4442.63,287.017C4449.26,287.187 4454.98,287.272 4459.79,287.272C4464.43,287.272 4470.52,287.144 4478.05,286.889C4485.58,286.635 4492.66,286.507 4499.29,286.507C4506.87,286.507 4513.53,286.96 4519.25,287.867C4524.97,288.773 4530.3,290.642 4535.26,293.474C4540.21,296.306 4544.36,300.016 4547.7,304.604C4551.04,309.192 4553.59,314.558 4555.34,320.704C4557.1,326.849 4557.98,333.179 4557.98,339.693C4557.98,346.093 4557.3,352.253 4555.94,358.172C4554.58,364.091 4552.68,369.429 4550.25,374.187C4547.81,378.945 4544.96,383.037 4541.71,386.464C4538.45,389.89 4534.73,392.822 4530.53,395.257C4527.42,397.07 4524.28,398.486 4521.1,399.505C4517.93,400.525 4513.6,401.346 4508.11,401.969C4501.99,402.649 4495.05,402.989 4487.29,402.989L4452.97,402.734C4449.74,402.734 4444.5,402.819 4437.25,402.989ZM4473.98,377.415C4477.09,377.699 4480.35,377.84 4483.74,377.84C4489.52,377.84 4494.67,377.33 4499.2,376.311C4503.73,375.291 4507.7,373.111 4511.13,369.769C4514.55,366.427 4517.09,362.137 4518.73,356.897C4520.37,351.658 4521.19,346.291 4521.19,340.797C4521.19,334.057 4519.97,328.379 4517.54,323.763C4515.1,319.146 4511.86,315.932 4507.81,314.119C4503.76,312.307 4498.25,311.401 4491.28,311.401C4487.2,311.401 4482.39,311.571 4476.84,311.91L4473.98,377.415Z" style="fill:white;fill-rule:nonzero;"/>
                </g>
            </g>
            <g transform="matrix(1.09209,0,0,0.954925,-3007.24,-19.4447)">
                <path d="M4069,232L4099.12,262.386L4132.96,236.192L4158.86,270.25L4195.82,248.696L4217.06,285.844L4256.52,269.299L4272.72,308.9L4314,297.648L4324.9,339.025L4367.29,333.257L4372.69,375.703L4415.48,375.518L4415.3,418.305L4457.74,423.707L4451.98,466.104L4493.35,477L4482.1,518.282L4521.7,534.485L4505.16,573.945L4542.3,595.179L4520.75,632.141L4554.81,658.042L4528.61,691.875L4559,722L4528.61,752.125L4554.81,785.958L4520.75,811.859L4542.3,848.821L4505.16,870.055L4521.7,909.515L4482.1,925.718L4493.35,967L4451.98,977.896L4457.74,1020.29L4415.3,1025.69L4415.48,1068.48L4372.69,1068.3L4367.29,1110.74L4324.9,1104.98L4314,1146.35L4272.72,1135.1L4256.52,1174.7L4217.06,1158.16L4195.82,1195.3L4158.86,1173.75L4132.96,1207.81L4099.12,1181.61L4069,1212L4038.88,1181.61L4005.04,1207.81L3979.14,1173.75L3942.18,1195.3L3920.95,1158.16L3881.49,1174.7L3865.28,1135.1L3824,1146.35L3813.1,1104.98L3770.71,1110.74L3765.31,1068.3L3722.52,1068.48L3722.7,1025.69L3680.26,1020.29L3686.03,977.896L3644.65,967L3655.9,925.718L3616.3,909.515L3632.84,870.055L3595.7,848.821L3617.25,811.859L3583.19,785.958L3609.39,752.125L3579,722L3609.39,691.875L3583.19,658.042L3617.25,632.141L3595.7,595.179L3632.84,573.945L3616.3,534.485L3655.9,518.282L3644.65,477L3686.03,466.104L3680.26,423.707L3722.7,418.305L3722.52,375.518L3765.31,375.703L3770.71,333.257L3813.1,339.025L3824,297.648L3865.28,308.9L3881.49,269.299L3920.95,285.844L3942.18,248.696L3979.14,270.25L4005.04,236.192L4038.88,262.386L4069,232ZM4066.43,302.002C3834.63,302.645 3646.96,491.363 3647.6,723.167C3648.25,954.97 3836.96,1142.64 4068.77,1142C4300.57,1141.36 4488.24,952.637 4487.6,720.833C4486.96,489.03 4298.24,301.358 4066.43,302.002Z" style="fill:rgb(140,227,136);"/>
                <path d="M4069,232L4099.12,262.386L4132.96,236.192L4158.86,270.25L4195.82,248.696L4217.06,285.844L4256.52,269.299L4272.72,308.9L4314,297.648L4324.9,339.025L4367.29,333.257L4372.69,375.703L4415.48,375.518L4415.3,418.305L4457.74,423.707L4451.98,466.104L4493.35,477L4482.1,518.282L4521.7,534.485L4505.16,573.945L4542.3,595.179L4520.75,632.141L4554.81,658.042L4528.61,691.875L4559,722L4528.61,752.125L4554.81,785.958L4520.75,811.859L4542.3,848.821L4505.16,870.055L4521.7,909.515L4482.1,925.718L4493.35,967L4451.98,977.896L4457.74,1020.29L4415.3,1025.69L4415.48,1068.48L4372.69,1068.3L4367.29,1110.74L4324.9,1104.98L4314,1146.35L4272.72,1135.1L4256.52,1174.7L4217.06,1158.16L4195.82,1195.3L4158.86,1173.75L4132.96,1207.81L4099.12,1181.61L4069,1212L4038.88,1181.61L4005.04,1207.81L3979.14,1173.75L3942.18,1195.3L3920.95,1158.16L3881.49,1174.7L3865.28,1135.1L3824,1146.35L3813.1,1104.98L3770.71,1110.74L3765.31,1068.3L3722.52,1068.48L3722.7,1025.69L3680.26,1020.29L3686.03,977.896L3644.65,967L3655.9,925.718L3616.3,909.515L3632.84,870.055L3595.7,848.821L3617.25,811.859L3583.19,785.958L3609.39,752.125L3579,722L3609.39,691.875L3583.19,658.042L3617.25,632.141L3595.7,595.179L3632.84,573.945L3616.3,534.485L3655.9,518.282L3644.65,477L3686.03,466.104L3680.26,423.707L3722.7,418.305L3722.52,375.518L3765.31,375.703L3770.71,333.257L3813.1,339.025L3824,297.648L3865.28,308.9L3881.49,269.299L3920.95,285.844L3942.18,248.696L3979.14,270.25L4005.04,236.192L4038.88,262.386L4069,232ZM3608.2,738.182C3609.97,738.63 3611.64,739.541 3613.03,740.916L3616.83,744.681C3620.59,748.413 3620.98,754.349 3617.74,758.538L3614.47,762.767C3613.27,764.31 3611.73,765.432 3610.03,766.105C3609.81,767.911 3609.11,769.681 3607.92,771.225L3601.37,779.683C3600.17,781.227 3598.63,782.348 3596.93,783.022C3596.89,783.413 3596.82,783.802 3596.72,784.187C3596.91,784.531 3597.08,784.883 3597.22,785.242C3599.03,785.456 3600.81,786.142 3602.37,787.323L3610.88,793.798C3612.43,794.98 3613.57,796.508 3614.25,798.192C3616.06,798.407 3617.84,799.092 3619.4,800.273L3623.65,803.511C3627.88,806.722 3629.04,812.558 3626.37,817.133L3623.68,821.753C3622.7,823.44 3621.31,824.752 3619.72,825.64C3619.73,827.46 3619.27,829.307 3618.29,830.994L3612.9,840.234C3611.92,841.921 3610.53,843.233 3608.94,844.122C3608.94,844.517 3608.92,844.914 3608.88,845.31C3609.11,845.623 3609.32,845.947 3609.51,846.281C3611.33,846.258 3613.18,846.706 3614.88,847.674L3624.17,852.983C3625.86,853.951 3627.18,855.319 3628.08,856.898C3629.91,856.875 3631.76,857.323 3633.45,858.291L3638.1,860.946C3642.7,863.58 3644.63,869.218 3642.58,874.102L3640.51,879.034C3639.76,880.835 3638.55,882.316 3637.09,883.404C3637.34,885.207 3637.13,887.099 3636.37,888.899L3632.24,898.764C3631.48,900.565 3630.28,902.046 3628.82,903.133C3628.87,903.526 3628.9,903.923 3628.91,904.322C3629.18,904.6 3629.43,904.891 3629.66,905.193C3631.46,904.934 3633.35,905.137 3635.16,905.876L3645.06,909.926C3646.87,910.666 3648.36,911.848 3649.45,913.295C3651.26,913.036 3653.15,913.238 3654.96,913.977L3659.91,916.003C3664.83,918.015 3667.47,923.359 3666.08,928.47L3664.67,933.63C3664.16,935.514 3663.16,937.138 3661.85,938.407C3662.34,940.162 3662.38,942.066 3661.86,943.95L3659.05,954.271C3658.53,956.154 3657.54,957.779 3656.22,959.048C3656.33,959.429 3656.41,959.818 3656.48,960.212C3656.77,960.451 3657.05,960.705 3657.32,960.972C3659.07,960.48 3660.97,960.434 3662.86,960.931L3673.21,963.655C3675.09,964.152 3676.72,965.129 3678.01,966.42C3679.76,965.928 3681.66,965.882 3683.55,966.379L3688.72,967.741C3693.87,969.096 3697.19,974.055 3696.48,979.306L3695.76,984.605C3695.49,986.54 3694.72,988.281 3693.58,989.709C3694.29,991.386 3694.58,993.27 3694.32,995.205L3692.87,1005.8C3692.61,1007.74 3691.83,1009.48 3690.7,1010.91C3690.85,1011.27 3690.99,1011.64 3691.1,1012.03C3691.42,1012.22 3691.73,1012.44 3692.02,1012.66C3693.69,1011.95 3695.58,1011.65 3697.51,1011.9L3708.12,1013.25C3710.06,1013.5 3711.81,1014.25 3713.24,1015.36C3714.92,1014.65 3716.8,1014.35 3718.73,1014.6L3724.04,1015.28C3729.32,1015.95 3733.27,1020.44 3733.25,1025.74L3733.23,1031.09C3733.22,1033.04 3732.68,1034.87 3731.74,1036.43C3732.66,1038 3733.19,1039.83 3733.18,1041.79L3733.14,1052.48C3733.13,1054.43 3732.58,1056.26 3731.64,1057.82C3731.84,1058.16 3732.02,1058.51 3732.18,1058.88C3732.53,1059.03 3732.86,1059.2 3733.18,1059.38C3734.74,1058.45 3736.57,1057.92 3738.52,1057.91L3749.21,1057.86C3751.17,1057.86 3753,1058.38 3754.57,1059.29C3756.13,1058.36 3757.96,1057.83 3759.91,1057.82L3765.26,1057.79C3770.59,1057.77 3775.1,1061.71 3775.77,1066.98L3776.45,1072.28C3776.69,1074.22 3776.39,1076.1 3775.66,1077.77C3776.79,1079.21 3777.55,1080.96 3777.8,1082.89L3779.15,1093.51C3779.39,1095.44 3779.09,1097.32 3778.36,1099C3778.6,1099.3 3778.83,1099.62 3779.03,1099.96C3779.39,1100.07 3779.74,1100.19 3780.08,1100.33C3781.5,1099.21 3783.24,1098.44 3785.18,1098.17L3795.78,1096.73C3797.71,1096.47 3799.59,1096.75 3801.27,1097.45C3802.7,1096.32 3804.44,1095.55 3806.38,1095.29L3811.68,1094.57C3816.96,1093.85 3821.95,1097.17 3823.31,1102.31L3824.67,1107.48C3825.17,1109.37 3825.12,1111.28 3824.61,1113.03C3825.91,1114.31 3826.9,1115.94 3827.39,1117.83L3830.12,1128.17C3830.62,1130.06 3830.56,1131.96 3830.06,1133.71C3830.34,1133.99 3830.6,1134.27 3830.84,1134.58C3831.21,1134.63 3831.57,1134.71 3831.92,1134.81C3833.19,1133.51 3834.81,1132.52 3836.7,1132L3847.02,1129.19C3848.9,1128.67 3850.8,1128.7 3852.56,1129.18C3853.83,1127.88 3855.45,1126.89 3857.34,1126.38L3862.5,1124.97C3867.65,1123.57 3873.04,1126.21 3875.05,1131.14L3877.08,1136.09C3877.82,1137.89 3878.01,1139.79 3877.74,1141.59C3879.2,1142.69 3880.39,1144.18 3881.13,1145.99L3885.18,1155.89C3885.92,1157.69 3886.11,1159.59 3885.84,1161.39C3886.15,1161.62 3886.44,1161.87 3886.72,1162.13C3887.09,1162.14 3887.46,1162.17 3887.82,1162.22C3888.91,1160.77 3890.39,1159.57 3892.19,1158.82L3902.05,1154.68C3903.85,1153.92 3905.75,1153.71 3907.55,1153.95C3908.64,1152.49 3910.12,1151.3 3911.92,1150.54L3916.85,1148.48C3921.77,1146.41 3927.47,1148.34 3930.11,1152.96L3932.77,1157.6C3933.74,1159.3 3934.18,1161.15 3934.15,1162.97C3935.73,1163.87 3937.11,1165.2 3938.08,1166.89L3943.38,1176.18C3944.35,1177.87 3944.8,1179.72 3944.76,1181.54C3945.09,1181.73 3945.41,1181.94 3945.72,1182.16C3946.09,1182.12 3946.46,1182.1 3946.83,1182.11C3947.71,1180.52 3949.02,1179.14 3950.71,1178.16L3959.95,1172.77C3961.64,1171.79 3963.48,1171.32 3965.31,1171.33C3966.19,1169.74 3967.5,1168.36 3969.19,1167.38L3973.81,1164.69C3978.42,1162 3984.33,1163.17 3987.55,1167.41L3990.79,1171.67C3991.97,1173.22 3992.65,1175 3992.86,1176.8C3994.55,1177.49 3996.08,1178.63 3997.26,1180.18L4003.74,1188.69C4004.92,1190.25 4005.6,1192.03 4005.81,1193.83C4006.16,1193.98 4006.5,1194.13 4006.83,1194.31C4007.19,1194.23 4007.56,1194.16 4007.92,1194.12C4008.59,1192.43 4009.71,1190.89 4011.25,1189.69L4019.71,1183.14C4021.26,1181.95 4023.03,1181.25 4024.84,1181.02C4025.51,1179.33 4026.63,1177.79 4028.17,1176.6L4032.4,1173.32C4036.62,1170.06 4042.63,1170.45 4046.38,1174.24L4050.15,1178.03C4051.52,1179.42 4052.43,1181.09 4052.87,1182.86C4054.64,1183.32 4056.31,1184.24 4057.68,1185.63L4065.21,1193.23C4066.59,1194.61 4067.49,1196.28 4067.93,1198.05C4068.29,1198.14 4068.65,1198.26 4069,1198.39C4069.35,1198.26 4069.7,1198.14 4070.07,1198.05C4070.51,1196.28 4071.41,1194.61 4072.79,1193.23L4080.32,1185.63C4081.7,1184.24 4083.36,1183.32 4085.13,1182.86C4085.57,1181.09 4086.48,1179.42 4087.85,1178.03L4091.62,1174.24C4095.37,1170.45 4101.38,1170.06 4105.6,1173.32L4109.83,1176.6C4111.37,1177.79 4112.49,1179.33 4113.16,1181.02C4114.97,1181.25 4116.74,1181.95 4118.29,1183.14L4126.75,1189.69C4128.29,1190.89 4129.41,1192.43 4130.08,1194.12C4130.44,1194.16 4130.81,1194.23 4131.17,1194.31C4131.5,1194.13 4131.84,1193.98 4132.19,1193.83C4132.4,1192.03 4133.08,1190.25 4134.26,1188.69L4140.74,1180.18C4141.92,1178.63 4143.45,1177.49 4145.14,1176.8C4145.35,1175 4146.03,1173.22 4147.21,1171.67L4150.45,1167.41C4153.68,1163.17 4159.58,1162 4164.19,1164.69L4168.81,1167.38C4170.5,1168.36 4171.81,1169.74 4172.69,1171.33C4174.52,1171.32 4176.36,1171.79 4178.05,1172.77L4187.29,1178.16C4188.98,1179.14 4190.29,1180.52 4191.17,1182.11C4191.54,1182.1 4191.91,1182.12 4192.28,1182.16C4192.59,1181.94 4192.91,1181.73 4193.24,1181.54C4193.2,1179.72 4193.65,1177.87 4194.62,1176.18L4199.92,1166.89C4200.89,1165.2 4202.27,1163.87 4203.85,1162.97C4203.82,1161.15 4204.26,1159.3 4205.23,1157.6L4207.89,1152.96C4210.53,1148.34 4216.23,1146.41 4221.15,1148.48L4226.08,1150.54C4227.88,1151.3 4229.36,1152.49 4230.45,1153.95C4232.25,1153.71 4234.15,1153.92 4235.95,1154.68L4245.81,1158.82C4247.61,1159.57 4249.09,1160.77 4250.18,1162.22C4250.54,1162.17 4250.91,1162.14 4251.28,1162.13C4251.56,1161.87 4251.85,1161.62 4252.16,1161.39C4251.89,1159.59 4252.08,1157.69 4252.82,1155.89L4256.87,1145.99C4257.61,1144.18 4258.8,1142.69 4260.26,1141.59C4259.99,1139.79 4260.18,1137.89 4260.92,1136.09L4262.95,1131.14C4264.96,1126.21 4270.35,1123.57 4275.5,1124.97L4280.66,1126.38C4282.55,1126.89 4284.17,1127.88 4285.44,1129.18C4287.2,1128.7 4289.1,1128.67 4290.98,1129.19L4301.31,1132C4303.19,1132.52 4304.81,1133.51 4306.08,1134.81C4306.43,1134.71 4306.79,1134.63 4307.16,1134.58C4307.4,1134.27 4307.66,1133.99 4307.94,1133.71C4307.44,1131.96 4307.39,1130.06 4307.88,1128.17L4310.61,1117.83C4311.1,1115.94 4312.09,1114.31 4313.39,1113.03C4312.89,1111.28 4312.83,1109.37 4313.33,1107.48L4314.69,1102.31C4316.05,1097.17 4321.04,1093.85 4326.32,1094.57L4331.62,1095.29C4333.56,1095.55 4335.3,1096.32 4336.73,1097.45C4338.4,1096.75 4340.29,1096.47 4342.22,1096.73L4352.82,1098.17C4354.76,1098.44 4356.5,1099.21 4357.93,1100.33C4358.26,1100.19 4358.61,1100.07 4358.97,1099.96C4359.17,1099.62 4359.4,1099.3 4359.64,1099C4358.91,1097.32 4358.61,1095.44 4358.85,1093.51L4360.2,1082.89C4360.45,1080.96 4361.21,1079.21 4362.34,1077.77C4361.61,1076.1 4361.31,1074.22 4361.55,1072.28L4362.23,1066.98C4362.9,1061.71 4367.41,1057.77 4372.74,1057.79L4378.09,1057.82C4380.04,1057.83 4381.87,1058.36 4383.43,1059.29C4385,1058.38 4386.83,1057.86 4388.79,1057.86L4399.48,1057.91C4401.43,1057.92 4403.26,1058.45 4404.82,1059.38C4405.15,1059.2 4405.48,1059.03 4405.82,1058.88C4405.98,1058.51 4406.16,1058.16 4406.36,1057.82C4405.42,1056.26 4404.87,1054.43 4404.86,1052.48L4404.82,1041.79C4404.81,1039.83 4405.34,1038 4406.27,1036.43C4405.32,1034.87 4404.78,1033.04 4404.77,1031.09L4404.75,1025.74C4404.73,1020.44 4408.68,1015.95 4413.96,1015.28L4419.27,1014.6C4421.2,1014.35 4423.08,1014.65 4424.76,1015.36C4426.19,1014.25 4427.94,1013.5 4429.88,1013.25L4440.49,1011.9C4442.42,1011.65 4444.31,1011.95 4445.98,1012.66C4446.27,1012.44 4446.58,1012.22 4446.9,1012.03C4447.02,1011.64 4447.15,1011.27 4447.3,1010.91C4446.17,1009.48 4445.39,1007.74 4445.13,1005.8L4443.69,995.205C4443.42,993.27 4443.71,991.386 4444.42,989.709C4443.28,988.281 4442.51,986.54 4442.24,984.605L4441.52,979.306C4440.81,974.055 4444.13,969.096 4449.28,967.741L4454.45,966.379C4456.34,965.882 4458.24,965.928 4459.99,966.42C4461.28,965.129 4462.91,964.152 4464.79,963.655L4475.14,960.931C4477.03,960.434 4478.93,960.48 4480.68,960.972C4480.95,960.705 4481.23,960.451 4481.52,960.212C4481.59,959.818 4481.67,959.43 4481.78,959.048C4480.46,957.779 4479.47,956.155 4478.95,954.271L4476.14,943.95C4475.62,942.066 4475.66,940.162 4476.15,938.407C4474.84,937.138 4473.84,935.514 4473.33,933.63L4471.92,928.47C4470.53,923.359 4473.17,918.015 4478.09,916.003L4483.04,913.977C4484.85,913.238 4486.74,913.036 4488.55,913.295C4489.64,911.848 4491.13,910.666 4492.94,909.926L4502.84,905.876C4504.65,905.137 4506.54,904.934 4508.35,905.193C4508.57,904.891 4508.82,904.6 4509.09,904.322C4509.1,903.923 4509.13,903.526 4509.19,903.134C4507.72,902.046 4506.52,900.565 4505.76,898.764L4501.63,888.899C4500.87,887.099 4500.66,885.207 4500.91,883.404C4499.45,882.316 4498.24,880.835 4497.49,879.034L4495.42,874.102C4493.37,869.218 4495.3,863.58 4499.9,860.946L4504.55,858.291C4506.24,857.323 4508.1,856.875 4509.92,856.898C4510.82,855.319 4512.14,853.952 4513.83,852.983L4523.12,847.675C4524.82,846.706 4526.67,846.258 4528.49,846.281C4528.68,845.947 4528.89,845.623 4529.12,845.31C4529.08,844.914 4529.06,844.517 4529.06,844.122C4527.47,843.233 4526.08,841.921 4525.1,840.235L4519.71,830.994C4518.73,829.307 4518.27,827.46 4518.28,825.64C4516.69,824.752 4515.31,823.44 4514.32,821.753L4511.63,817.133C4508.96,812.558 4510.12,806.722 4514.35,803.511L4518.6,800.273C4520.16,799.092 4521.94,798.407 4523.75,798.192C4524.43,796.508 4525.57,794.98 4527.12,793.798L4535.63,787.323C4537.19,786.142 4538.97,785.456 4540.78,785.242C4540.92,784.883 4541.09,784.531 4541.28,784.187C4541.18,783.802 4541.11,783.413 4541.07,783.022C4539.37,782.348 4537.83,781.227 4536.63,779.683L4530.08,771.225C4528.89,769.681 4528.19,767.911 4527.97,766.105C4526.27,765.432 4524.73,764.31 4523.53,762.767L4520.26,758.538C4517.02,754.349 4517.41,748.413 4521.17,744.681L4524.97,740.916C4526.36,739.541 4528.03,738.63 4529.8,738.183C4530.26,736.423 4531.18,734.759 4532.57,733.385L4540.16,725.853C4541.55,724.479 4543.22,723.568 4544.99,723.12C4545.09,722.742 4545.21,722.368 4545.35,722C4545.21,721.632 4545.09,721.258 4544.99,720.88C4543.22,720.432 4541.55,719.521 4540.16,718.147L4532.57,710.616C4531.18,709.241 4530.26,707.577 4529.8,705.818C4528.03,705.37 4526.36,704.459 4524.97,703.084L4521.17,699.319C4517.41,695.587 4517.02,689.651 4520.26,685.462L4523.53,681.233C4524.73,679.69 4526.27,678.568 4527.97,677.895C4528.19,676.089 4528.89,674.319 4530.08,672.775L4536.63,664.317C4537.83,662.773 4539.37,661.652 4541.07,660.978C4541.11,660.587 4541.18,660.198 4541.28,659.813C4541.09,659.469 4540.92,659.117 4540.78,658.758C4538.97,658.544 4537.19,657.858 4535.63,656.677L4527.12,650.202C4525.57,649.02 4524.43,647.492 4523.75,645.808C4521.94,645.593 4520.16,644.908 4518.6,643.727L4514.35,640.489C4510.12,637.278 4508.96,631.442 4511.63,626.867L4514.32,622.247C4515.31,620.56 4516.69,619.248 4518.28,618.36C4518.27,616.54 4518.73,614.693 4519.71,613.006L4525.1,603.766C4526.08,602.079 4527.47,600.767 4529.06,599.878C4529.06,599.483 4529.08,599.086 4529.12,598.69C4528.89,598.377 4528.68,598.053 4528.49,597.719C4526.67,597.742 4524.82,597.294 4523.12,596.326L4513.83,591.017C4512.14,590.049 4510.82,588.681 4509.92,587.102C4508.1,587.125 4506.24,586.677 4504.55,585.709L4499.9,583.054C4495.3,580.42 4493.37,574.782 4495.42,569.898L4497.49,564.966C4498.24,563.165 4499.45,561.684 4500.91,560.596C4500.66,558.793 4500.87,556.901 4501.63,555.101L4505.76,545.236C4506.52,543.435 4507.72,541.954 4509.19,540.867C4509.13,540.474 4509.1,540.077 4509.09,539.678C4508.82,539.4 4508.57,539.109 4508.35,538.807C4506.54,539.066 4504.65,538.863 4502.84,538.124L4492.94,534.074C4491.13,533.334 4489.64,532.152 4488.55,530.705C4486.74,530.964 4484.85,530.762 4483.04,530.023L4478.09,527.997C4473.17,525.985 4470.53,520.641 4471.92,515.53L4473.33,510.37C4473.84,508.486 4474.84,506.862 4476.15,505.593C4475.66,503.838 4475.62,501.934 4476.14,500.05L4478.95,489.729C4479.47,487.846 4480.46,486.221 4481.78,484.952C4481.67,484.571 4481.59,484.182 4481.52,483.788C4481.23,483.549 4480.95,483.295 4480.68,483.028C4478.93,483.52 4477.03,483.566 4475.14,483.069L4464.79,480.345C4462.91,479.848 4461.28,478.871 4459.99,477.58C4458.24,478.072 4456.34,478.118 4454.45,477.621L4449.28,476.259C4444.13,474.904 4440.81,469.945 4441.52,464.694L4442.24,459.395C4442.51,457.46 4443.28,455.719 4444.42,454.291C4443.71,452.614 4443.42,450.73 4443.68,448.795L4445.13,438.196C4445.39,436.261 4446.17,434.521 4447.3,433.093C4447.15,432.729 4447.02,432.356 4446.9,431.974C4446.58,431.778 4446.27,431.565 4445.98,431.337C4444.31,432.053 4442.43,432.347 4440.49,432.1L4429.88,430.75C4427.94,430.504 4426.19,429.748 4424.76,428.636C4423.08,429.352 4421.2,429.646 4419.27,429.4L4413.96,428.724C4408.68,428.052 4404.73,423.564 4404.75,418.26L4404.77,412.912C4404.78,410.959 4405.32,409.133 4406.27,407.57C4405.34,405.999 4404.81,404.167 4404.82,402.215L4404.86,391.518C4404.87,389.565 4405.42,387.739 4406.36,386.176C4406.16,385.837 4405.98,385.487 4405.82,385.125C4405.48,384.973 4405.15,384.803 4404.82,384.617C4403.26,385.546 4401.43,386.082 4399.48,386.091L4388.79,386.137C4386.83,386.145 4385,385.624 4383.43,384.71C4381.87,385.638 4380.04,386.175 4378.09,386.183L4372.74,386.206C4367.41,386.229 4362.9,382.289 4362.23,377.023L4361.55,371.717C4361.31,369.78 4361.61,367.899 4362.34,366.228C4361.21,364.79 4360.45,363.043 4360.2,361.106L4358.85,350.494C4358.61,348.557 4358.91,346.676 4359.64,345.005C4359.4,344.697 4359.17,344.376 4358.97,344.041C4358.61,343.935 4358.26,343.811 4357.93,343.669C4356.5,344.793 4354.76,345.564 4352.82,345.827L4342.22,347.269C4340.29,347.532 4338.41,347.255 4336.73,346.553C4335.3,347.678 4333.56,348.448 4331.62,348.711L4326.32,349.432C4321.04,350.151 4316.05,346.828 4314.69,341.689L4313.33,336.517C4312.83,334.629 4312.89,332.725 4313.39,330.974C4312.09,329.694 4311.1,328.061 4310.61,326.173L4307.88,315.828C4307.39,313.94 4307.44,312.036 4307.94,310.285C4307.66,310.014 4307.4,309.727 4307.16,309.425C4306.79,309.366 4306.43,309.288 4306.08,309.192C4304.81,310.494 4303.19,311.485 4301.31,311.998L4290.98,314.812C4289.1,315.325 4287.2,315.295 4285.44,314.819C4284.17,316.12 4282.55,317.112 4280.66,317.625L4275.5,319.031C4270.35,320.435 4264.96,317.787 4262.95,312.863L4260.92,307.913C4260.18,306.106 4259.99,304.212 4260.26,302.412C4258.8,301.311 4257.61,299.82 4256.87,298.013L4252.82,288.113C4252.08,286.306 4251.89,284.412 4252.16,282.611C4251.85,282.38 4251.56,282.132 4251.28,281.868C4250.91,281.857 4250.54,281.826 4250.18,281.777C4249.09,283.234 4247.61,284.429 4245.81,285.184L4235.95,289.32C4234.15,290.075 4232.25,290.294 4230.45,290.05C4229.36,291.507 4227.88,292.702 4226.08,293.456L4221.15,295.524C4216.23,297.589 4210.53,295.663 4207.89,291.04L4205.23,286.396C4204.26,284.701 4203.82,282.85 4203.85,281.03C4202.27,280.128 4200.89,278.804 4199.92,277.109L4194.62,267.822C4193.65,266.127 4193.2,264.276 4193.24,262.457C4192.91,262.269 4192.59,262.064 4192.28,261.841C4191.91,261.878 4191.54,261.896 4191.17,261.894C4190.29,263.481 4188.98,264.86 4187.29,265.843L4178.05,271.231C4176.36,272.215 4174.52,272.678 4172.69,272.671C4171.81,274.258 4170.5,275.637 4168.81,276.62L4164.19,279.314C4159.58,282.003 4153.68,280.834 4150.45,276.591L4147.21,272.334C4146.03,270.78 4145.35,269.003 4145.14,267.196C4143.45,266.508 4141.92,265.373 4140.74,263.819L4134.26,255.305C4133.08,253.751 4132.4,251.974 4132.19,250.167C4131.84,250.025 4131.5,249.865 4131.17,249.686C4130.81,249.771 4130.44,249.837 4130.08,249.884C4129.41,251.574 4128.29,253.112 4126.75,254.307L4118.29,260.855C4116.74,262.05 4114.97,262.751 4113.16,262.981C4112.49,264.671 4111.37,266.209 4109.83,267.404L4105.6,270.678C4101.38,273.945 4095.37,273.553 4091.62,269.765L4087.85,265.967C4086.48,264.581 4085.57,262.909 4085.13,261.145C4083.36,260.682 4081.7,259.757 4080.32,258.37L4072.79,250.774C4071.41,249.388 4070.51,247.716 4070.07,245.952C4069.71,245.858 4069.35,245.744 4069,245.611C4068.65,245.744 4068.3,245.858 4067.93,245.952C4067.49,247.716 4066.59,249.388 4065.21,250.774L4057.68,258.37C4056.31,259.757 4054.64,260.682 4052.87,261.145C4052.43,262.909 4051.52,264.581 4050.15,265.967L4046.38,269.765C4042.63,273.553 4036.62,273.945 4032.4,270.678L4028.17,267.404C4026.63,266.209 4025.51,264.671 4024.84,262.981C4023.03,262.751 4021.26,262.05 4019.71,260.855L4011.25,254.307C4009.71,253.112 4008.59,251.574 4007.92,249.884C4007.56,249.837 4007.19,249.771 4006.83,249.686C4006.5,249.865 4006.16,250.025 4005.81,250.167C4005.6,251.974 4004.92,253.751 4003.74,255.305L3997.26,263.819C3996.08,265.373 3994.55,266.508 3992.86,267.196C3992.65,269.003 3991.97,270.78 3990.79,272.334L3987.55,276.591C3984.33,280.834 3978.42,282.003 3973.81,279.314L3969.19,276.62C3967.5,275.637 3966.19,274.258 3965.31,272.671C3963.48,272.678 3961.64,272.215 3959.95,271.231L3950.71,265.843C3949.02,264.86 3947.71,263.481 3946.83,261.894C3946.46,261.896 3946.09,261.878 3945.72,261.841C3945.41,262.064 3945.09,262.269 3944.76,262.457C3944.8,264.276 3944.35,266.127 3943.38,267.822L3938.08,277.109C3937.11,278.804 3935.73,280.128 3934.15,281.03C3934.18,282.85 3933.74,284.701 3932.77,286.396L3930.11,291.04C3927.47,295.663 3921.77,297.589 3916.85,295.524L3911.92,293.456C3910.12,292.702 3908.64,291.507 3907.55,290.05C3905.75,290.294 3903.85,290.075 3902.05,289.32L3892.19,285.184C3890.39,284.429 3888.91,283.234 3887.82,281.777C3887.46,281.826 3887.09,281.857 3886.72,281.868C3886.44,282.132 3886.15,282.38 3885.84,282.611C3886.11,284.412 3885.92,286.305 3885.18,288.113L3881.13,298.013C3880.39,299.82 3879.2,301.311 3877.74,302.412C3878.01,304.212 3877.82,306.106 3877.08,307.913L3875.05,312.863C3873.04,317.787 3867.65,320.435 3862.5,319.031L3857.34,317.625C3855.45,317.112 3853.83,316.12 3852.56,314.819C3850.8,315.295 3848.9,315.325 3847.02,314.812L3836.7,311.998C3834.81,311.485 3833.19,310.494 3831.92,309.192C3831.57,309.288 3831.21,309.366 3830.84,309.425C3830.6,309.727 3830.34,310.014 3830.06,310.285C3830.56,312.036 3830.62,313.94 3830.12,315.828L3827.39,326.172C3826.9,328.061 3825.91,329.694 3824.61,330.974C3825.12,332.725 3825.17,334.629 3824.67,336.517L3823.31,341.689C3821.95,346.828 3816.96,350.151 3811.68,349.432L3806.38,348.711C3804.44,348.448 3802.7,347.678 3801.27,346.553C3799.6,347.255 3797.71,347.532 3795.78,347.269L3785.18,345.827C3783.24,345.564 3781.5,344.793 3780.08,343.669C3779.74,343.811 3779.39,343.935 3779.03,344.041C3778.83,344.376 3778.6,344.697 3778.36,345.005C3779.09,346.676 3779.39,348.557 3779.15,350.494L3777.8,361.106C3777.55,363.043 3776.79,364.79 3775.66,366.228C3776.39,367.899 3776.69,369.78 3776.45,371.717L3775.77,377.023C3775.1,382.289 3770.59,386.229 3765.26,386.206L3759.91,386.183C3757.96,386.175 3756.13,385.638 3754.57,384.71C3753,385.624 3751.17,386.145 3749.21,386.137L3738.52,386.091C3736.57,386.082 3734.74,385.546 3733.18,384.617C3732.86,384.803 3732.53,384.973 3732.18,385.125C3732.02,385.487 3731.84,385.837 3731.64,386.176C3732.58,387.739 3733.13,389.565 3733.14,391.518L3733.18,402.215C3733.19,404.167 3732.66,405.999 3731.74,407.569C3732.68,409.132 3733.22,410.959 3733.23,412.912L3733.25,418.26C3733.27,423.564 3729.32,428.052 3724.04,428.724L3718.73,429.4C3716.8,429.646 3714.92,429.352 3713.24,428.636C3711.81,429.748 3710.06,430.504 3708.12,430.75L3697.51,432.1C3695.58,432.347 3693.69,432.053 3692.02,431.337C3691.73,431.565 3691.42,431.778 3691.1,431.974C3690.99,432.356 3690.85,432.729 3690.7,433.093C3691.83,434.521 3692.61,436.261 3692.87,438.196L3694.32,448.795C3694.58,450.73 3694.29,452.614 3693.58,454.291C3694.72,455.719 3695.49,457.46 3695.76,459.395L3696.48,464.694C3697.19,469.945 3693.87,474.904 3688.72,476.259L3683.55,477.621C3681.66,478.118 3679.76,478.072 3678.01,477.58C3676.72,478.871 3675.09,479.848 3673.21,480.345L3662.86,483.069C3660.97,483.566 3659.07,483.52 3657.32,483.028C3657.05,483.295 3656.77,483.549 3656.48,483.788C3656.41,484.182 3656.33,484.57 3656.22,484.952C3657.54,486.221 3658.53,487.845 3659.05,489.729L3661.86,500.05C3662.38,501.934 3662.34,503.838 3661.85,505.593C3663.16,506.862 3664.16,508.486 3664.67,510.37L3666.08,515.53C3667.47,520.641 3664.83,525.985 3659.91,527.997L3654.96,530.023C3653.15,530.762 3651.26,530.964 3649.45,530.705C3648.36,532.152 3646.87,533.334 3645.06,534.074L3635.16,538.124C3633.35,538.863 3631.46,539.066 3629.66,538.807C3629.43,539.109 3629.18,539.4 3628.91,539.678C3628.9,540.077 3628.87,540.474 3628.82,540.866C3630.28,541.954 3631.48,543.435 3632.24,545.236L3636.37,555.101C3637.13,556.901 3637.34,558.793 3637.09,560.596C3638.55,561.684 3639.76,563.165 3640.51,564.966L3642.58,569.898C3644.63,574.782 3642.7,580.42 3638.1,583.054L3633.45,585.709C3631.76,586.677 3629.91,587.125 3628.08,587.102C3627.18,588.681 3625.86,590.048 3624.17,591.017L3614.88,596.325C3613.18,597.294 3611.33,597.742 3609.51,597.719C3609.32,598.053 3609.11,598.377 3608.88,598.69C3608.92,599.086 3608.94,599.483 3608.94,599.878C3610.53,600.767 3611.92,602.079 3612.9,603.765L3618.29,613.006C3619.27,614.693 3619.73,616.54 3619.72,618.36C3621.31,619.248 3622.7,620.56 3623.68,622.247L3626.37,626.867C3629.04,631.442 3627.88,637.278 3623.65,640.489L3619.4,643.727C3617.84,644.908 3616.06,645.593 3614.25,645.808C3613.57,647.492 3612.43,649.02 3610.88,650.202L3602.37,656.677C3600.81,657.858 3599.03,658.544 3597.22,658.758C3597.08,659.117 3596.91,659.469 3596.72,659.813C3596.82,660.198 3596.89,660.587 3596.93,660.978C3598.63,661.652 3600.17,662.773 3601.37,664.317L3607.92,672.775C3609.11,674.319 3609.81,676.089 3610.03,677.895C3611.73,678.568 3613.27,679.69 3614.47,681.233L3617.74,685.462C3620.98,689.651 3620.59,695.587 3616.83,699.319L3613.03,703.084C3611.64,704.459 3609.97,705.37 3608.2,705.817C3607.74,707.577 3606.82,709.241 3605.43,710.615L3597.84,718.147C3596.45,719.521 3594.78,720.432 3593.01,720.88C3592.91,721.258 3592.79,721.632 3592.65,722C3592.79,722.368 3592.91,722.742 3593.01,723.12C3594.78,723.568 3596.45,724.479 3597.84,725.853L3605.43,733.384C3606.82,734.759 3607.74,736.423 3608.2,738.182ZM3638.76,707.055C3637.89,705.439 3637.43,703.576 3637.53,701.613C3637.7,698.01 3637.91,694.418 3638.16,690.838C3638.31,688.878 3638.98,687.081 3640.03,685.578C3639.24,683.922 3638.88,682.038 3639.07,680.082C3639.42,676.492 3639.81,672.914 3640.25,669.35C3640.48,667.399 3641.25,665.638 3642.38,664.189C3641.67,662.495 3641.4,660.595 3641.69,658.65C3642.22,655.082 3642.79,651.528 3643.4,647.989C3643.74,646.052 3644.59,644.331 3645.79,642.94C3645.17,641.213 3645,639.302 3645.38,637.374C3646.09,633.838 3646.84,630.317 3647.63,626.812C3648.07,624.894 3649,623.217 3650.27,621.888C3649.74,620.132 3649.67,618.214 3650.15,616.308C3651.03,612.812 3651.96,609.332 3652.93,605.871C3653.46,603.977 3654.48,602.349 3655.81,601.086C3655.37,599.305 3655.39,597.386 3655.97,595.506C3657.03,592.059 3658.13,588.631 3659.28,585.222C3659.9,583.357 3661,581.783 3662.4,580.588C3662.05,578.787 3662.17,576.873 3662.84,575.024C3664.07,571.636 3665.35,568.267 3666.66,564.919C3667.38,563.087 3668.56,561.57 3670.02,560.447C3669.76,558.631 3669.97,556.724 3670.74,554.912C3672.14,551.59 3673.58,548.289 3675.06,545.011C3675.87,543.218 3677.13,541.762 3678.64,540.713C3678.47,538.887 3678.78,536.994 3679.64,535.222C3681.21,531.976 3682.81,528.752 3684.46,525.551C3685.36,523.801 3686.68,522.41 3688.25,521.438C3688.17,519.605 3688.58,517.73 3689.52,516.004C3691.25,512.84 3693.02,509.701 3694.82,506.586C3695.81,504.883 3697.2,503.56 3698.81,502.667C3698.83,500.833 3699.33,498.98 3700.36,497.303C3702.25,494.23 3704.17,491.183 3706.13,488.162C3707.2,486.51 3708.66,485.258 3710.31,484.447C3710.42,482.616 3711.01,480.79 3712.13,479.166C3714.16,476.192 3716.24,473.244 3718.35,470.324C3719.5,468.728 3721.02,467.55 3722.71,466.822C3722.91,464.999 3723.59,463.206 3724.79,461.639C3726.97,458.77 3729.19,455.929 3731.44,453.117C3732.67,451.581 3734.25,450.48 3735.97,449.836C3736.27,448.026 3737.04,446.269 3738.31,444.764C3740.63,442.007 3742.99,439.28 3745.38,436.583C3746.69,435.109 3748.32,434.088 3750.07,433.531C3750.46,431.737 3751.32,430.02 3752.66,428.579C3755.12,425.942 3757.61,423.335 3760.13,420.76C3761.51,419.353 3763.19,418.414 3764.97,417.945C3765.44,416.172 3766.39,414.5 3767.8,413.128C3770.39,410.616 3773.01,408.137 3775.66,405.69C3777.11,404.353 3778.83,403.499 3780.63,403.118C3781.19,401.372 3782.22,399.749 3783.7,398.449C3786.41,396.068 3789.15,393.722 3791.92,391.409C3793.43,390.147 3795.2,389.379 3797.02,389.089C3797.66,387.372 3798.77,385.802 3800.32,384.577C3803.14,382.335 3806,380.128 3808.88,377.956C3810.45,376.77 3812.26,376.091 3814.09,375.892C3814.82,374.21 3816,372.697 3817.61,371.551C3820.54,369.453 3823.51,367.391 3826.49,365.365C3828.13,364.259 3829.96,363.671 3831.8,363.564C3832.62,361.92 3833.88,360.468 3835.54,359.403C3838.57,357.455 3841.64,355.543 3844.72,353.669C3846.41,352.647 3848.27,352.151 3850.12,352.136C3851.01,350.535 3852.35,349.148 3854.06,348.168C3857.19,346.374 3860.35,344.619 3863.53,342.903C3865.26,341.966 3867.14,341.564 3868.99,341.642C3869.97,340.088 3871.37,338.77 3873.12,337.877C3876.34,336.243 3879.58,334.649 3882.85,333.094C3884.63,332.246 3886.53,331.94 3888.37,332.111C3889.42,330.608 3890.89,329.362 3892.69,328.559C3895.99,327.09 3899.31,325.661 3902.65,324.273C3904.47,323.516 3906.39,323.307 3908.21,323.57C3909.34,322.122 3910.87,320.952 3912.71,320.241C3916.08,318.941 3919.47,317.682 3922.87,316.464C3924.73,315.8 3926.66,315.688 3928.46,316.043C3929.67,314.655 3931.25,313.563 3933.13,312.946C3936.56,311.819 3940.01,310.733 3943.47,309.69C3945.36,309.121 3947.29,309.107 3949.08,309.553C3950.35,308.228 3951.99,307.218 3953.89,306.697C3957.38,305.745 3960.87,304.836 3964.39,303.97C3966.31,303.497 3968.23,303.581 3969.99,304.117C3971.34,302.858 3973.02,301.933 3974.95,301.509C3978.48,300.735 3982.02,300.004 3985.57,299.317C3987.51,298.942 3989.43,299.123 3991.16,299.748C3992.57,298.559 3994.3,297.72 3996.25,297.395C3999.81,296.8 4003.38,296.249 4006.97,295.743C4008.92,295.467 4010.83,295.744 4012.53,296.456C4013.99,295.339 4015.76,294.589 4017.72,294.362C4021.3,293.948 4024.9,293.578 4028.51,293.252C4030.47,293.075 4032.37,293.448 4034.03,294.244C4035.54,293.202 4037.35,292.541 4039.32,292.413C4042.92,292.18 4046.53,291.99 4050.15,291.845C4052.12,291.766 4053.99,292.233 4055.61,293.11C4057.17,292.145 4059.01,291.576 4060.99,291.546C4062.79,291.519 4064.6,291.503 4066.41,291.498C4068.22,291.493 4070.02,291.499 4071.83,291.516C4073.8,291.535 4075.64,292.094 4077.21,293.05C4078.83,292.164 4080.69,291.687 4082.66,291.755C4086.29,291.88 4089.9,292.049 4093.5,292.263C4095.47,292.38 4097.28,293.03 4098.8,294.063C4100.46,293.259 4102.34,292.875 4104.31,293.042C4107.92,293.347 4111.52,293.697 4115.1,294.091C4117.07,294.307 4118.85,295.047 4120.31,296.156C4122.01,295.435 4123.91,295.147 4125.87,295.413C4129.46,295.899 4133.03,296.43 4136.6,297.005C4138.55,297.319 4140.28,298.148 4141.69,299.33C4143.42,298.696 4145.34,298.504 4147.28,298.868C4150.84,299.535 4154.39,300.246 4157.91,301.001C4159.85,301.414 4161.54,302.33 4162.89,303.582C4164.65,303.035 4166.57,302.941 4168.49,303.403C4172.01,304.25 4175.51,305.14 4179,306.072C4180.91,306.582 4182.55,307.583 4183.83,308.901C4185.62,308.445 4187.55,308.449 4189.44,309.007C4192.91,310.031 4196.36,311.098 4199.8,312.206C4201.68,312.813 4203.27,313.896 4204.48,315.277C4206.29,314.912 4208.21,315.013 4210.08,315.667C4213.49,316.866 4216.89,318.106 4220.26,319.387C4222.1,320.088 4223.64,321.25 4224.78,322.691C4226.6,322.418 4228.52,322.617 4230.34,323.364C4233.69,324.733 4237.02,326.144 4240.32,327.594C4242.13,328.387 4243.6,329.625 4244.67,331.122C4246.5,330.941 4248.41,331.237 4250.19,332.075C4253.47,333.611 4256.72,335.188 4259.94,336.803C4261.71,337.687 4263.11,338.997 4264.1,340.546C4265.94,340.458 4267.83,340.849 4269.57,341.776C4272.76,343.475 4275.93,345.213 4279.07,346.989C4280.78,347.96 4282.12,349.339 4283.03,350.935C4284.87,350.94 4286.74,351.425 4288.43,352.438C4291.53,354.295 4294.6,356.19 4297.65,358.121C4299.32,359.177 4300.58,360.622 4301.41,362.261C4303.25,362.358 4305.09,362.936 4306.73,364.033C4309.73,366.042 4312.7,368.087 4315.65,370.169C4317.26,371.307 4318.45,372.813 4319.19,374.492C4321.02,374.68 4322.83,375.349 4324.41,376.527C4327.31,378.683 4330.17,380.874 4333.01,383.1C4334.56,384.317 4335.68,385.88 4336.34,387.594C4338.15,387.874 4339.93,388.632 4341.44,389.886C4344.23,392.183 4346.98,394.515 4349.7,396.88C4351.19,398.172 4352.23,399.789 4352.8,401.533C4354.6,401.903 4356.33,402.748 4357.79,404.076C4360.45,406.509 4363.08,408.974 4365.69,411.472C4367.11,412.836 4368.06,414.503 4368.54,416.272C4370.32,416.732 4372.01,417.662 4373.4,419.061C4375.93,421.622 4378.44,424.215 4380.91,426.839C4382.26,428.272 4383.13,429.984 4383.53,431.775C4385.28,432.323 4386.92,433.335 4388.23,434.801C4390.64,437.485 4393.01,440.199 4395.35,442.943C4396.63,444.441 4397.41,446.194 4397.72,448.003C4399.44,448.637 4401.03,449.729 4402.27,451.259C4404.53,454.059 4406.77,456.887 4408.97,459.744C4410.17,461.304 4410.86,463.094 4411.07,464.916C4412.77,465.634 4414.3,466.804 4415.46,468.393C4417.58,471.302 4419.67,474.238 4421.73,477.202C4422.85,478.819 4423.45,480.641 4423.57,482.471C4425.23,483.274 4426.69,484.518 4427.77,486.163C4429.75,489.173 4431.69,492.21 4433.59,495.273C4434.63,496.944 4435.14,498.794 4435.17,500.628C4436.78,501.511 4438.18,502.827 4439.18,504.524C4441,507.629 4442.79,510.759 4444.53,513.913C4445.49,515.635 4445.9,517.508 4445.84,519.341C4447.41,520.304 4448.74,521.688 4449.65,523.433C4451.31,526.625 4452.94,529.84 4454.52,533.078C4455.39,534.845 4455.71,536.736 4455.55,538.564C4457.07,539.604 4458.33,541.054 4459.15,542.842C4460.65,546.112 4462.11,549.405 4463.54,552.719C4464.31,554.527 4464.54,556.432 4464.29,558.249C4465.75,559.365 4466.94,560.875 4467.67,562.702C4469,566.043 4470.29,569.405 4471.54,572.786C4472.23,574.631 4472.35,576.546 4472.01,578.348C4473.42,579.535 4474.53,581.104 4475.16,582.965C4476.33,586.368 4477.45,589.79 4478.53,593.231C4479.11,595.108 4479.15,597.026 4478.71,598.809C4480.06,600.065 4481.09,601.687 4481.63,603.578C4482.61,607.034 4483.56,610.508 4484.46,614C4484.96,615.903 4484.89,617.821 4484.37,619.58C4485.65,620.902 4486.59,622.573 4487.04,624.489C4487.85,627.989 4488.62,631.507 4489.34,635.039C4489.74,636.965 4489.58,638.877 4488.97,640.608C4490.18,641.992 4491.04,643.709 4491.38,645.644C4492.02,649.18 4492.61,652.731 4493.16,656.296C4493.45,658.239 4493.2,660.14 4492.5,661.838C4493.64,663.281 4494.41,665.038 4494.66,666.988C4495.11,670.549 4495.53,674.125 4495.89,677.713C4496.09,679.668 4495.74,681.554 4494.96,683.215C4496.02,684.712 4496.71,686.505 4496.86,688.465C4497.14,692.043 4497.37,695.633 4497.56,699.235C4497.66,701.198 4497.21,703.063 4496.35,704.683C4497.34,706.231 4497.93,708.055 4497.99,710.019C4498.08,713.603 4498.14,717.199 4498.15,720.804L4498.15,720.809C4498.15,722.774 4497.62,724.615 4496.68,726.191C4497.59,727.784 4498.09,729.635 4498.05,731.6C4497.97,735.206 4497.84,738.802 4497.68,742.386C4497.58,744.349 4496.95,746.162 4495.94,747.69C4496.77,749.327 4497.18,751.201 4497.04,753.162C4496.78,756.76 4496.48,760.345 4496.13,763.918C4495.94,765.875 4495.22,767.655 4494.13,769.131C4494.88,770.807 4495.19,772.699 4494.96,774.65C4494.52,778.23 4494.04,781.797 4493.51,785.35C4493.23,787.295 4492.42,789.037 4491.25,790.457C4491.91,792.168 4492.14,794.074 4491.8,796.011C4491.18,799.564 4490.52,803.103 4489.82,806.626C4489.43,808.554 4488.54,810.254 4487.3,811.614C4487.88,813.356 4488,815.271 4487.57,817.189C4486.77,820.707 4485.94,824.208 4485.06,827.692C4484.57,829.599 4483.59,831.251 4482.29,832.548C4482.78,834.317 4482.81,836.235 4482.28,838.129C4481.3,841.602 4480.29,845.057 4479.23,848.493C4478.65,850.373 4477.59,851.975 4476.23,853.204C4476.62,854.996 4476.55,856.913 4475.93,858.778C4474.78,862.197 4473.59,865.596 4472.36,868.976C4471.69,870.825 4470.55,872.371 4469.12,873.53C4469.43,875.339 4469.26,877.25 4468.54,879.081C4467.22,882.437 4465.87,885.773 4464.47,889.088C4463.7,890.9 4462.48,892.387 4461,893.474C4461.21,895.296 4460.95,897.196 4460.14,898.989C4458.65,902.274 4457.13,905.538 4455.56,908.778C4454.71,910.55 4453.42,911.974 4451.88,912.985C4452,914.815 4451.64,916.7 4450.74,918.45C4449.09,921.656 4447.41,924.838 4445.68,927.997C4444.74,929.724 4443.38,931.082 4441.79,932.014C4441.82,933.848 4441.36,935.713 4440.38,937.415C4438.57,940.534 4436.72,943.629 4434.84,946.698C4433.81,948.375 4432.39,949.663 4430.75,950.515C4430.69,952.348 4430.14,954.187 4429.07,955.838C4427.11,958.863 4425.11,961.861 4423.08,964.833C4421.97,966.457 4420.47,967.673 4418.8,968.443C4418.65,970.27 4418.01,972.08 4416.86,973.676C4414.75,976.598 4412.6,979.494 4410.42,982.361C4409.23,983.927 4407.68,985.067 4405.97,985.753C4405.72,987.57 4404.99,989.346 4403.76,990.882C4401.51,993.696 4399.22,996.481 4396.9,999.236C4395.63,1000.74 4394.02,1001.8 4392.28,1002.4C4391.94,1004.21 4391.13,1005.94 4389.82,1007.42C4387.43,1010.12 4385,1012.78 4382.55,1015.42C4381.2,1016.86 4379.55,1017.84 4377.78,1018.35C4377.35,1020.14 4376.45,1021.83 4375.07,1023.24C4372.55,1025.82 4369.99,1028.36 4367.4,1030.87C4365.99,1032.24 4364.29,1033.14 4362.49,1033.57C4361.98,1035.33 4360.99,1036.97 4359.55,1038.31C4356.9,1040.76 4354.22,1043.17 4351.5,1045.55C4350.02,1046.85 4348.28,1047.66 4346.47,1048C4345.86,1049.73 4344.8,1051.33 4343.28,1052.59C4340.51,1054.9 4337.72,1057.18 4334.89,1059.42C4333.34,1060.65 4331.56,1061.37 4329.73,1061.62C4329.04,1063.32 4327.9,1064.86 4326.32,1066.04C4323.44,1068.21 4320.53,1070.35 4317.6,1072.45C4315.99,1073.6 4314.17,1074.23 4312.34,1074.38C4311.56,1076.05 4310.34,1077.53 4308.71,1078.63C4305.72,1080.66 4302.71,1082.65 4299.67,1084.6C4298.01,1085.66 4296.16,1086.2 4294.32,1086.26C4293.46,1087.89 4292.16,1089.31 4290.48,1090.33C4287.39,1092.2 4284.28,1094.04 4281.15,1095.83C4279.43,1096.81 4277.56,1097.26 4275.72,1097.23C4274.78,1098.81 4273.41,1100.16 4271.68,1101.1C4268.5,1102.81 4265.3,1104.49 4262.08,1106.12C4260.32,1107.02 4258.42,1107.37 4256.59,1107.25C4255.57,1108.78 4254.14,1110.06 4252.35,1110.91C4249.1,1112.46 4245.81,1113.97 4242.51,1115.44C4240.71,1116.24 4238.8,1116.5 4236.97,1116.29C4235.87,1117.76 4234.38,1118.97 4232.56,1119.73C4229.22,1121.11 4225.87,1122.46 4222.49,1123.76C4220.65,1124.47 4218.73,1124.63 4216.91,1124.32C4215.74,1125.74 4214.19,1126.87 4212.33,1127.54C4208.93,1128.75 4205.51,1129.92 4202.07,1131.05C4200.2,1131.67 4198.27,1131.73 4196.47,1131.33C4195.23,1132.69 4193.62,1133.74 4191.73,1134.31C4188.27,1135.35 4184.8,1136.35 4181.31,1137.3C4179.4,1137.82 4177.48,1137.79 4175.7,1137.3C4174.39,1138.59 4172.73,1139.56 4170.81,1140.03C4167.31,1140.89 4163.79,1141.71 4160.25,1142.49C4158.32,1142.91 4156.4,1142.78 4154.65,1142.2C4153.28,1143.43 4151.57,1144.31 4149.63,1144.68C4146.09,1145.37 4142.53,1146.01 4138.96,1146.61C4137.01,1146.93 4135.1,1146.7 4133.38,1146.03C4131.95,1147.19 4130.19,1147.98 4128.24,1148.26C4124.67,1148.76 4121.08,1149.22 4117.48,1149.64C4115.52,1149.87 4113.62,1149.54 4111.94,1148.79C4110.45,1149.87 4108.66,1150.57 4106.69,1150.75C4103.1,1151.07 4099.5,1151.35 4095.88,1151.59C4093.91,1151.71 4092.03,1151.29 4090.39,1150.46C4088.85,1151.46 4087.03,1152.08 4085.05,1152.15C4081.45,1152.3 4077.84,1152.4 4074.22,1152.45C4072.24,1152.48 4070.39,1151.97 4068.79,1151.05C4067.2,1151.98 4065.35,1152.5 4063.38,1152.48C4059.75,1152.45 4056.14,1152.37 4052.54,1152.25C4050.57,1152.18 4048.74,1151.57 4047.19,1150.58C4045.56,1151.42 4043.68,1151.85 4041.71,1151.74C4038.09,1151.52 4034.48,1151.26 4030.89,1150.96C4028.92,1150.79 4027.13,1150.1 4025.63,1149.03C4023.96,1149.79 4022.06,1150.12 4020.1,1149.91C4016.5,1149.51 4012.91,1149.07 4009.33,1148.59C4007.38,1148.32 4005.62,1147.54 4004.18,1146.39C4002.47,1147.07 4000.56,1147.31 3998.61,1147C3995.03,1146.42 3991.47,1145.8 3987.92,1145.13C3985.98,1144.77 3984.26,1143.89 3982.89,1142.68C3981.14,1143.27 3979.22,1143.41 3977.29,1143C3973.75,1142.24 3970.22,1141.44 3966.71,1140.6C3964.79,1140.13 3963.12,1139.18 3961.81,1137.89C3960.04,1138.39 3958.11,1138.44 3956.2,1137.93C3952.7,1136.99 3949.22,1136.01 3945.76,1134.99C3943.87,1134.43 3942.25,1133.39 3941,1132.04C3939.21,1132.45 3937.28,1132.4 3935.4,1131.79C3931.96,1130.68 3928.53,1129.53 3925.13,1128.33C3923.26,1127.68 3921.7,1126.56 3920.53,1125.14C3918.71,1125.46 3916.79,1125.31 3914.94,1124.61C3911.56,1123.33 3908.2,1122 3904.86,1120.64C3903.03,1119.89 3901.53,1118.69 3900.43,1117.22C3898.6,1117.45 3896.69,1117.2 3894.88,1116.41C3891.57,1114.95 3888.28,1113.46 3885.01,1111.92C3883.22,1111.09 3881.78,1109.81 3880.76,1108.29C3878.92,1108.42 3877.02,1108.08 3875.26,1107.2C3872.03,1105.58 3868.82,1103.92 3865.63,1102.22C3863.89,1101.3 3862.52,1099.95 3861.57,1098.38C3859.73,1098.42 3857.85,1097.98 3856.14,1097.01C3852.99,1095.23 3849.87,1093.42 3846.77,1091.56C3845.08,1090.55 3843.78,1089.13 3842.91,1087.52C3841.07,1087.47 3839.22,1086.93 3837.55,1085.88C3834.5,1083.94 3831.48,1081.97 3828.48,1079.97C3826.84,1078.87 3825.61,1077.39 3824.82,1075.74C3822.99,1075.59 3821.17,1074.97 3819.56,1073.83C3816.61,1071.75 3813.69,1069.63 3810.79,1067.47C3809.21,1066.3 3808.06,1064.76 3807.36,1063.06C3805.53,1062.83 3803.74,1062.12 3802.19,1060.9C3799.35,1058.67 3796.54,1056.41 3793.76,1054.11C3792.24,1052.86 3791.16,1051.27 3790.55,1049.54C3788.74,1049.21 3786.99,1048.41 3785.5,1047.12C3782.77,1044.76 3780.08,1042.36 3777.42,1039.92C3775.96,1038.6 3774.97,1036.95 3774.44,1035.19C3772.65,1034.78 3770.94,1033.89 3769.52,1032.53C3766.92,1030.03 3764.35,1027.5 3761.81,1024.94C3760.42,1023.54 3759.51,1021.85 3759.07,1020.07C3757.3,1019.57 3755.64,1018.59 3754.29,1017.16C3751.82,1014.54 3749.38,1011.88 3746.97,1009.2C3745.65,1007.73 3744.83,1006 3744.48,1004.2C3742.74,1003.61 3741.13,1002.56 3739.85,1001.06C3737.51,998.315 3735.21,995.542 3732.94,992.741C3731.7,991.211 3730.96,989.439 3730.7,987.623C3728.99,986.947 3727.43,985.815 3726.23,984.255C3724.03,981.4 3721.87,978.517 3719.74,975.606C3718.58,974.017 3717.94,972.211 3717.77,970.384C3716.1,969.624 3714.6,968.416 3713.48,966.799C3711.43,963.838 3709.41,960.851 3707.43,957.837C3706.35,956.192 3705.79,954.355 3705.72,952.523C3704.08,951.679 3702.65,950.399 3701.61,948.727C3699.71,945.668 3697.85,942.584 3696.02,939.475C3695.03,937.778 3694.56,935.916 3694.58,934.083C3692.99,933.159 3691.62,931.808 3690.67,930.087C3688.93,926.938 3687.22,923.764 3685.55,920.567C3684.64,918.822 3684.27,916.94 3684.39,915.109C3682.84,914.107 3681.54,912.69 3680.68,910.922C3679.1,907.69 3677.55,904.436 3676.05,901.159C3675.23,899.37 3674.95,897.471 3675.16,895.648C3673.67,894.57 3672.44,893.09 3671.67,891.282C3670.25,887.975 3668.87,884.646 3667.54,881.297C3666.81,879.47 3666.63,877.56 3666.93,875.75C3665.49,874.598 3664.34,873.059 3663.66,871.214C3662.41,867.841 3661.2,864.448 3660.04,861.035C3659.4,859.174 3659.32,857.257 3659.71,855.464C3658.34,854.241 3657.27,852.646 3656.68,850.769C3655.6,847.338 3654.57,843.889 3653.58,840.422C3653.04,838.531 3653.05,836.612 3653.53,834.84C3652.22,833.551 3651.23,831.904 3650.74,830C3649.84,826.52 3648.98,823.024 3648.17,819.511C3647.72,817.595 3647.84,815.68 3648.4,813.934C3647.16,812.581 3646.25,810.886 3645.86,808.96C3645.14,805.44 3644.45,801.905 3643.82,798.355C3643.47,796.42 3643.68,794.513 3644.34,792.798C3643.16,791.385 3642.35,789.647 3642.05,787.704C3641.5,784.154 3641,780.59 3640.54,777.012C3640.29,775.062 3640.6,773.168 3641.34,771.488C3640.24,770.018 3639.51,768.243 3639.31,766.287C3638.94,762.716 3638.62,759.132 3638.34,755.536C3638.19,753.576 3638.59,751.7 3639.41,750.059C3638.39,748.536 3637.75,746.727 3637.65,744.765C3637.46,741.182 3637.32,737.587 3637.22,733.981C3637.16,732.017 3637.66,730.163 3638.56,728.564C3637.61,726.994 3637.06,725.155 3637.05,723.191C3637.04,719.583 3637.08,715.986 3637.16,712.4C3637.2,710.435 3637.78,708.608 3638.76,707.055ZM4066.43,302.002C3834.63,302.645 3646.96,491.363 3647.6,723.167C3648.25,954.97 3836.96,1142.64 4068.77,1142C4300.57,1141.36 4488.24,952.637 4487.6,720.833C4486.96,489.03 4298.24,301.358 4066.43,302.002Z" style="fill:rgb(140,227,136);"/>
            </g>
            <g transform="matrix(10.9365,0,0,9.52193,-27767.9,-5546.32)">
                <path d="M2632.91,661.766C2633.13,659.647 2633.29,657.92 2633.39,656.582C2633.58,654.141 2633.72,651.715 2633.82,649.305C2633.91,646.896 2633.96,644.923 2633.96,643.388C2635.18,643.406 2636.26,643.415 2637.2,643.415C2637.84,643.415 2638.75,643.406 2639.95,643.388L2639.62,648.262L2639.22,655.882L2639.16,657.754C2640.71,657.78 2641.71,657.794 2642.18,657.794C2644.54,657.794 2646.33,657.763 2647.54,657.7L2647.24,661.766C2644.88,661.748 2642.64,661.739 2640.5,661.739C2637.61,661.739 2635.08,661.748 2632.91,661.766Z" style="fill:white;fill-rule:nonzero;"/>
                <path d="M2647.87,661.766C2648.39,654.558 2648.65,649.012 2648.65,645.125L2648.63,643.388C2650.2,643.406 2651.26,643.415 2651.79,643.415C2652.03,643.415 2652.99,643.406 2654.68,643.388C2654.52,645.408 2654.39,647.32 2654.29,649.124C2654.16,651.637 2654.08,653.986 2654.02,656.172C2653.97,658.357 2653.94,660.222 2653.94,661.766L2651.18,661.739C2650.64,661.739 2649.54,661.748 2647.87,661.766Z" style="fill:white;fill-rule:nonzero;"/>
                <path d="M2671.78,657.282C2671.67,657.81 2671.54,658.546 2671.39,659.49C2671.23,660.434 2671.13,661.166 2671.08,661.685C2669.16,661.972 2667.44,662.116 2665.93,662.116C2664.48,662.116 2663.13,661.934 2661.87,661.57C2660.62,661.207 2659.47,660.61 2658.43,659.78C2657.38,658.95 2656.64,657.973 2656.19,656.852C2655.74,655.73 2655.51,654.473 2655.51,653.082C2655.51,651.457 2655.82,649.997 2656.42,648.7C2657.03,647.403 2657.9,646.321 2659.03,645.455C2660.17,644.589 2661.41,643.97 2662.77,643.597C2664.12,643.225 2665.53,643.038 2666.97,643.038C2668.3,643.038 2669.94,643.209 2671.9,643.55L2671.92,644.681C2671.94,645.175 2671.97,645.718 2672.01,646.31L2672.1,647.845C2671.05,647.593 2670.2,647.423 2669.55,647.333C2668.9,647.243 2668.29,647.198 2667.74,647.198C2666.53,647.198 2665.43,647.441 2664.47,647.925C2663.5,648.41 2662.73,649.115 2662.18,650.039C2661.62,650.964 2661.34,651.987 2661.34,653.109C2661.34,654.132 2661.58,655.009 2662.04,655.741C2662.51,656.472 2663.14,657.038 2663.93,657.437C2664.73,657.837 2665.71,658.036 2666.88,658.036C2667.51,658.036 2668.21,657.985 2668.96,657.881C2669.7,657.778 2670.64,657.579 2671.78,657.282Z" style="fill:white;fill-rule:nonzero;"/>
                <path d="M2670.56,661.766L2671.68,659.827L2678.64,646.714L2679.38,645.246C2679.6,644.815 2679.9,644.196 2680.28,643.388C2681.86,643.406 2683.02,643.415 2683.74,643.415C2685.01,643.415 2686.18,643.406 2687.26,643.388L2689.22,649.003L2693.22,659.8L2694,661.766C2692.44,661.748 2691.5,661.739 2691.17,661.739C2690.41,661.739 2689.3,661.748 2687.84,661.766C2687.45,660.285 2686.88,658.543 2686.13,656.542L2679.36,656.542C2678.58,658.122 2677.77,659.863 2676.93,661.766C2675.26,661.748 2674.24,661.739 2673.86,661.739C2673.18,661.739 2672.08,661.748 2670.56,661.766ZM2680.98,652.624L2685.16,652.624C2684.12,649.461 2683.56,647.719 2683.46,647.396C2682.87,648.713 2682.36,649.793 2681.95,650.635L2680.98,652.624Z" style="fill:white;fill-rule:nonzero;"/>
                <path d="M2693.9,661.766C2694.12,659.647 2694.29,657.92 2694.39,656.582C2694.58,654.141 2694.72,651.715 2694.81,649.305C2694.91,646.896 2694.95,644.923 2694.95,643.388C2696.17,643.406 2697.25,643.415 2698.2,643.415C2698.83,643.415 2699.75,643.406 2700.94,643.388L2700.62,648.262L2700.21,655.882L2700.16,657.754C2701.7,657.78 2702.71,657.794 2703.17,657.794C2705.53,657.794 2707.32,657.763 2708.53,657.7L2708.24,661.766C2705.88,661.748 2703.63,661.739 2701.49,661.739C2698.6,661.739 2696.07,661.748 2693.9,661.766Z" style="fill:white;fill-rule:nonzero;"/>
            </g>
            <g transform="matrix(0.595671,0,0,0.518624,-1245.14,518.109)">
                <g transform="matrix(0.439119,0.742579,-0.762613,0.427584,2927.89,-2633.36)">
                    <path d="M3814.71,920.311C3816.67,899.686 3817.98,883.467 3818.64,871.655C3819.58,855.53 3820.49,833.405 3821.38,805.28C3822.27,777.155 3822.71,757.327 3822.71,745.796C3822.71,741.671 3822.66,735.858 3822.57,728.358C3835.04,728.639 3844.93,728.78 3852.24,728.78C3862.46,728.78 3874.37,728.569 3887.97,728.147C3901.56,727.725 3913.23,727.514 3922.98,727.514C3934.7,727.514 3943.05,727.842 3948.02,728.499C3954.58,729.342 3960.32,730.842 3965.24,732.999C3970.16,735.155 3974.27,737.827 3977.55,741.014C3981.21,744.764 3984.07,749.264 3986.13,754.514C3988.47,760.514 3989.64,766.936 3989.64,773.78C3989.64,779.124 3988.96,784.233 3987.61,789.108C3986.24,793.983 3984.32,798.319 3981.84,802.116C3979.36,805.913 3976.57,809.077 3973.47,811.608C3970.38,814.139 3967.36,816.108 3964.4,817.514C3961.45,818.921 3957.49,820.327 3952.52,821.733C3957.49,822.577 3961.47,823.538 3964.47,824.616C3967.47,825.694 3970.68,827.428 3974.11,829.819C3977.53,832.21 3980.6,835.28 3983.32,839.03C3986.03,842.78 3988.07,846.975 3989.43,851.616C3990.79,856.256 3991.47,861.155 3991.47,866.311C3991.47,873.436 3990.3,880.139 3987.96,886.421C3985.61,892.702 3982.33,898.092 3978.11,902.592C3974.55,906.436 3969.91,909.717 3964.19,912.436C3958.47,915.155 3952.61,917.03 3946.61,918.061C3941.74,918.811 3932.86,919.374 3919.96,919.749C3907.07,920.124 3893.41,920.311 3878.97,920.311L3841.99,920.171L3814.71,920.311ZM3877.36,803.171L3897.35,803.171C3903.92,803.171 3908.59,803.006 3911.36,802.678C3914.13,802.35 3916.83,801.764 3919.46,800.921C3922.08,800.077 3924.36,798.671 3926.28,796.702C3928.21,794.733 3929.57,792.53 3930.37,790.092C3931.17,787.655 3931.57,785.217 3931.57,782.78C3931.57,779.311 3930.74,776.217 3929.11,773.499C3927.46,770.78 3924.82,768.764 3921.16,767.452C3917.5,766.139 3911.93,765.483 3904.43,765.483L3879.11,765.483L3877.36,803.171ZM3874.13,881.78L3901.16,881.78C3908.29,881.78 3913.55,881.358 3916.93,880.514C3921.05,879.483 3924.2,878.124 3926.36,876.436C3928.51,874.749 3930.23,872.452 3931.49,869.546C3932.76,866.639 3933.39,863.405 3933.39,859.842C3933.39,856.749 3932.88,854.03 3931.85,851.686C3930.82,849.342 3929.27,847.374 3927.2,845.78C3925.14,844.186 3922.61,843.038 3919.61,842.335C3916.61,841.631 3911.92,841.28 3905.55,841.28L3875.87,841.28L3874.13,881.78Z" style="fill:white;fill-rule:nonzero;"/>
                </g>
                <g transform="matrix(0.725459,0.485024,-0.498109,0.706402,1582.92,-1814.31)">
                    <path d="M4044.71,920.311C4045.65,912.717 4046.78,899.827 4048.09,881.639C4049.4,863.452 4050.06,850.608 4050.06,843.108L3985.65,728.358C3999.79,728.546 4011.46,728.639 4020.64,728.639C4029.44,728.639 4039.98,728.546 4052.25,728.358C4056,737.73 4061.09,748.906 4067.51,761.886C4073.93,774.866 4079.16,786.464 4083.18,796.68C4093.96,777.654 4102.63,762.823 4109.19,752.186C4115.75,741.549 4120.43,733.607 4123.24,728.358C4135.16,728.546 4146.61,728.639 4157.6,728.639C4163.41,728.639 4173.98,728.546 4189.27,728.358L4127.54,819.342C4115.26,837.53 4109.12,847.046 4109.12,847.889L4108.98,849.296L4108.98,850.702L4108.84,852.108L4107.86,873.483C4107.2,887.639 4106.69,903.249 4106.31,920.311C4093.09,920.124 4082.87,920.03 4075.65,920.03C4068.25,920.03 4057.93,920.124 4044.71,920.311Z" style="fill:white;fill-rule:nonzero;"/>
                </g>
                <g transform="matrix(0.863308,0.154617,-0.1667,0.8436,779.221,-484.782)">
                    <path d="M4233.32,920.311C4235.39,898.936 4236.81,881.827 4237.56,868.983C4238.7,849.858 4239.83,825.108 4240.96,794.733C4241.81,771.483 4242.23,754.842 4242.23,744.811L4242.23,728.358C4253.2,728.639 4262.66,728.78 4270.63,728.78C4278.32,728.78 4288.39,728.569 4300.86,728.147C4313.32,727.725 4325.04,727.514 4336,727.514C4348.56,727.514 4359.57,728.264 4369.04,729.764C4378.51,731.264 4387.34,734.358 4395.54,739.046C4403.74,743.733 4410.61,749.874 4416.14,757.467C4421.66,765.061 4425.88,773.944 4428.79,784.116C4431.69,794.288 4433.15,804.764 4433.15,815.546C4433.15,826.139 4432.02,836.335 4429.77,846.131C4427.52,855.928 4424.38,864.764 4420.35,872.639C4416.32,880.514 4411.61,887.288 4406.22,892.96C4400.83,898.631 4394.66,903.483 4387.73,907.514C4382.57,910.514 4377.37,912.858 4372.12,914.546C4366.87,916.233 4359.69,917.592 4350.6,918.624C4340.48,919.749 4328.99,920.311 4316.15,920.311L4259.33,919.889C4253.99,919.889 4245.32,920.03 4233.32,920.311ZM4294.11,877.983C4299.27,878.452 4304.66,878.686 4310.28,878.686C4319.84,878.686 4328.36,877.842 4335.86,876.155C4343.35,874.467 4349.93,870.858 4355.6,865.327C4361.27,859.796 4365.46,852.694 4368.18,844.022C4370.9,835.35 4372.26,826.467 4372.26,817.374C4372.26,806.217 4370.24,796.819 4366.21,789.178C4362.18,781.538 4356.81,776.217 4350.11,773.217C4343.4,770.217 4334.29,768.717 4322.76,768.717C4316.01,768.717 4308.04,768.999 4298.85,769.561L4294.11,877.983Z" style="fill:white;fill-rule:nonzero;"/>
                </g>
                <g transform="matrix(0.874846,-0.0951205,0.0926217,0.851864,518.894,606.701)">
                    <path d="M4416.22,920.311L4427.89,900.061L4500.63,763.092L4508.37,747.764C4510.62,743.264 4513.77,736.796 4517.8,728.358C4534.3,728.546 4546.34,728.639 4553.94,728.639C4567.15,728.639 4579.39,728.546 4590.63,728.358L4611.15,786.999L4652.89,899.78L4661.04,920.311C4644.81,920.124 4634.95,920.03 4631.48,920.03C4623.6,920.03 4612.01,920.124 4596.71,920.311C4592.59,904.842 4586.65,886.655 4578.88,865.749L4508.09,865.749C4499.94,882.249 4491.51,900.436 4482.8,920.311C4465.35,920.124 4454.65,920.03 4450.71,920.03C4443.57,920.03 4432.07,920.124 4416.22,920.311ZM4525.09,824.827L4568.77,824.827C4557.92,791.79 4551.97,773.587 4550.94,770.218C4544.76,783.976 4539.52,795.253 4535.21,804.049L4525.09,824.827Z" style="fill:white;fill-rule:nonzero;"/>
                </g>
                <g transform="matrix(0.769212,-0.418441,0.427298,0.747859,753.337,2192.89)">
                    <path d="M4644.25,915.952C4643.41,899.921 4642.33,884.264 4641.02,868.983C4651.61,873.014 4660.17,875.733 4666.68,877.139C4673.2,878.546 4679.27,879.249 4684.89,879.249C4691.18,879.249 4696.8,878.124 4701.77,875.874C4705.52,874.092 4708.47,871.796 4710.63,868.983C4713.53,865.046 4715.5,860.452 4716.53,855.202C4718.32,845.733 4719.68,829.256 4720.64,805.772C4721.59,782.288 4722.07,761.967 4722.07,744.811L4722.07,728.358C4737.06,728.546 4747.03,728.639 4752,728.639C4758.18,728.639 4768.77,728.546 4783.75,728.358L4779.5,790.514C4778.47,808.889 4777.71,828.436 4777.24,849.155C4776.86,865.092 4776.07,876.014 4774.85,881.921C4773.72,887.264 4772.13,891.764 4770.07,895.421C4768.19,898.889 4765.85,901.983 4763.04,904.702C4759.57,907.983 4755.4,910.842 4750.53,913.28C4743.97,916.655 4736.99,919.186 4729.58,920.874C4721.43,922.749 4712.71,923.686 4703.44,923.686C4686.29,923.686 4666.56,921.108 4644.25,915.952Z" style="fill:white;fill-rule:nonzero;"/>
                </g>
                <g transform="matrix(0.666601,-0.560136,0.574482,0.648474,1150.86,2940.92)">
                    <path d="M4770.48,920.311L4782.16,900.061L4854.9,763.092L4862.64,747.764C4864.89,743.264 4868.03,736.796 4872.06,728.358C4888.56,728.546 4900.61,728.639 4908.2,728.639C4921.42,728.639 4933.65,728.546 4944.9,728.358L4965.41,786.999L5007.15,899.78L5015.31,920.311C4999.07,920.124 4989.22,920.03 4985.74,920.03C4977.86,920.03 4966.27,920.124 4950.97,920.311C4946.86,904.842 4940.91,886.655 4933.14,865.749L4862.35,865.749C4854.21,882.249 4845.78,900.436 4837.06,920.311C4819.61,920.124 4808.91,920.03 4804.97,920.03C4797.84,920.03 4786.34,920.124 4770.48,920.311ZM4879.36,824.827L4923.03,824.827C4912.18,791.79 4906.23,773.587 4905.21,770.218C4899.02,783.976 4893.78,795.253 4889.47,804.049L4879.36,824.827Z" style="fill:white;fill-rule:nonzero;"/>
                </g>
                <g transform="matrix(0.439082,-0.74453,0.76246,0.42449,2143.72,4029.71)">
                    <path d="M5016.23,920.311L5019.03,884.311L5022.66,813.999L5024.19,764.217C5024.29,758.874 5024.34,753.53 5024.34,748.186C5024.34,744.155 5024.29,737.546 5024.19,728.358C5036.57,728.639 5046.52,728.78 5054.02,728.78C5061.24,728.78 5071.13,728.569 5083.7,728.147C5096.27,727.725 5106.91,727.514 5115.63,727.514C5128.2,727.514 5137.51,728.311 5143.56,729.905C5149.61,731.499 5155.07,734.006 5159.94,737.428C5164.82,740.85 5168.86,744.858 5172.04,749.452C5175.23,754.046 5177.62,759.272 5179.22,765.131C5180.81,770.991 5181.61,776.967 5181.61,783.061C5181.61,795.624 5178.56,807.108 5172.47,817.514C5166.38,827.921 5157.8,835.702 5146.73,840.858C5135.67,846.014 5123.25,848.592 5109.47,848.592C5104.41,848.592 5098.55,848.03 5091.89,846.905C5091.14,842.592 5089.73,836.171 5087.67,827.639C5085.61,819.108 5083.92,812.78 5082.61,808.655C5086.73,809.499 5091.05,809.921 5095.55,809.921C5105.02,809.921 5112.07,807.647 5116.71,803.1C5121.35,798.553 5123.67,792.999 5123.67,786.436C5123.67,783.249 5123.16,780.413 5122.12,777.928C5121.09,775.444 5119.45,773.405 5117.2,771.811C5114.95,770.217 5112.47,769.186 5109.75,768.717C5107.03,768.249 5103.94,768.014 5100.47,768.014C5097.09,768.014 5093.58,768.108 5089.92,768.296L5078.11,769.139C5076.9,787.233 5075.98,807.342 5075.32,829.467C5074.12,869.78 5073.52,893.967 5073.52,902.03L5073.52,920.311L5045.51,920.03C5041.57,920.03 5031.81,920.124 5016.23,920.311Z" style="fill:white;fill-rule:nonzero;"/>
                </g>
            </g>
            <g transform="matrix(1.15204,0,0,1.00303,-3247.15,-52.7029)">
                <ellipse cx="3918" cy="999.971" rx="8" ry="8.029" style="fill:white;"/>
                <path d="M3918,991.943C3922.41,991.943 3926,995.54 3926,999.971C3926,1004.4 3922.41,1008 3918,1008C3913.59,1008 3910,1004.4 3910,999.971C3910,995.54 3913.59,991.943 3918,991.943ZM3918,995.943C3915.79,995.943 3914,997.752 3914,999.971C3914,1002.19 3915.79,1004 3918,1004C3920.21,1004 3922,1002.19 3922,999.971C3922,997.752 3920.21,995.943 3918,995.943Z" style="fill:white;"/>
            </g>
        </g>
    </g>
</svg>
