<?xml version="1.0" encoding="UTF-8" standalone="no"?>
<!DOCTYPE svg PUBLIC "-//W3C//DTD SVG 1.1//EN" "http://www.w3.org/Graphics/SVG/1.1/DTD/svg11.dtd">
<svg width="100%" height="100%" viewBox="0 0 1026 1388" version="1.1" xmlns="http://www.w3.org/2000/svg" xmlns:xlink="http://www.w3.org/1999/xlink" xml:space="preserve" xmlns:serif="http://www.serif.com/" style="fill-rule:evenodd;clip-rule:evenodd;stroke-linecap:round;stroke-linejoin:round;stroke-miterlimit:1.5;">
    <g id="mwa" transform="matrix(0.515996,0,0,0.695739,-130.031,-497.454)">
        <rect x="252" y="715" width="1988.16" height="1995" style="fill:none;"/>
        <g transform="matrix(1.938,0,0,1.43732,-703.433,81.1419)">
            <path d="M813,594C813,594 902.406,506.834 984,503C1065.59,499.166 1081.73,514.817 1141,527C1200.27,539.183 1223.09,611.372 1249,648C1274.91,684.628 1290,702 1290,702" style="fill:none;stroke:black;stroke-width:4.17px;"/>
        </g>
        <g transform="matrix(1.938,0,0,1.43732,-703.433,81.1419)">
            <path d="M893,578C893,578 936.983,538.813 997.441,544C1057.9,549.187 1076.98,577.498 1119,602.205C1161.02,626.912 1270,690 1270,690" style="fill:none;stroke:black;stroke-width:4.17px;"/>
        </g>
        <g transform="matrix(1.938,0,0,1.43732,-703.433,81.1419)">
            <path d="M908.157,602.205C908.157,602.205 954.294,724.894 1051.5,724C1148.71,723.106 1128.67,728.421 1151,740C1173.33,751.579 1191.4,776.095 1232,785C1272.6,793.905 1270,785 1270,785" style="fill:none;stroke:black;stroke-width:4.17px;"/>
        </g>
        <g transform="matrix(1.938,0,0,1.43732,-703.433,81.1419)">
            <path d="M957,695.581C957,695.581 977.332,802.848 1018,818C1058.67,833.152 1105,813 1105,813" style="fill:none;stroke:black;stroke-width:4.17px;"/>
        </g>
        <g transform="matrix(1.938,0,0,1.43732,-703.433,81.1419)">
            <path d="M1156,1151C1156,1151 1165.84,1204.49 1240,1166C1314.16,1127.51 1299.53,1007.94 1313,990" style="fill:none;stroke:black;stroke-width:4.17px;"/>
        </g>
        <g transform="matrix(1.938,0,0,1.43732,-703.433,81.1419)">
            <path d="M1156,1121C1156,1121 1166.5,1033.78 1193,1011C1219.51,988.217 1217.44,983.821 1270.03,941" style="fill:none;stroke:black;stroke-width:4.17px;"/>
        </g>
        <g transform="matrix(1.938,0,0,1.43732,-703.433,81.1419)">
            <path d="M1169,1008C1169,1008 1153.3,929.216 1234.5,901" style="fill:none;stroke:black;stroke-width:4.17px;"/>
        </g>
        <g transform="matrix(1.938,0,0,1.43732,-703.433,81.1419)">
            <path d="M1277,713C1277,713 1242.17,727.53 1279,788.958C1315.83,850.385 1297.61,848.214 1288,869C1278.39,889.786 1264.7,948.516 1291,962C1317.3,975.484 1332.31,1014.69 1345,968" style="fill:none;stroke:black;stroke-width:4.17px;"/>
        </g>
        <g transform="matrix(1.938,0,0,1.43732,-703.433,81.1419)">
            <path d="M1303.55,747C1303.55,747 1358.45,735.166 1379,778C1399.55,820.834 1371.01,822.33 1371,827C1370.99,831.67 1353.36,852.17 1357,886C1360.64,919.83 1330,901 1330,901" style="fill:none;stroke:black;stroke-width:4.17px;"/>
        </g>
        <g transform="matrix(1.938,0,0,1.43732,-703.433,81.1419)">
            <path d="M1313,697C1313,697 1381.33,711.911 1403,758C1424.67,804.089 1412.52,822.779 1425,842C1437.48,861.221 1475.48,907.009 1455,941" style="fill:none;stroke:black;stroke-width:4.17px;"/>
        </g>
        <g transform="matrix(1.938,0,0,1.43732,-703.433,81.1419)">
            <path d="M1327,681C1327,681 1511.28,725.142 1450,838" style="fill:none;stroke:black;stroke-width:4.17px;"/>
        </g>
        <g transform="matrix(1.938,0,0,1.43732,-703.433,81.1419)">
            <path d="M1420,876C1420,876 1463.62,1004.83 1355,984" style="fill:none;stroke:black;stroke-width:4.17px;"/>
        </g>
        <g transform="matrix(1.938,0,0,1.43732,-703.433,81.1419)">
            <path d="M1180,1246C1175.81,1226.48 1176.19,1202.05 1179,1175" style="fill:none;stroke:black;stroke-width:4.17px;"/>
        </g>
        <g transform="matrix(1.938,0,0,1.43732,-703.433,81.1419)">
            <path d="M826,780C822.308,776.73 817.282,769.795 815,763" style="fill:none;stroke:black;stroke-width:4.17px;"/>
        </g>
        <g transform="matrix(1.938,0,0,1.43732,-703.433,81.1419)">
            <path d="M814,774C810.145,771.2 806.991,765.207 804.547,758" style="fill:none;stroke:black;stroke-width:4.17px;"/>
        </g>
        <g transform="matrix(1.938,0,0,1.43732,-703.433,81.1419)">
            <path d="M803,770.5C799.473,766.553 796.41,761.948 795,755" style="fill:none;stroke:black;stroke-width:4.17px;"/>
        </g>
        <g transform="matrix(1.938,0,0,1.43732,-703.433,81.1419)">
            <path d="M795,767.227C789.629,765.111 785.845,761.17 784,755" style="fill:none;stroke:black;stroke-width:4.17px;"/>
        </g>
        <g transform="matrix(1.938,0,0,1.43732,-703.433,81.1419)">
            <path d="M785,767.227C783.072,766.023 781.399,763.967 780,761" style="fill:none;stroke:black;stroke-width:4.17px;"/>
        </g>
        <g transform="matrix(1.938,0,0,1.43732,-703.433,81.1419)">
            <path d="M792,769L804,772C806.116,779.177 801.875,793.944 795,793C787.418,791.959 786.22,774.509 792,769Z" style="stroke:black;stroke-width:4.17px;"/>
        </g>
        <g transform="matrix(1.938,0,0,1.43732,-703.433,81.1419)">
            <path d="M812,775C813.144,782.317 811.497,788.327 807,793" style="fill:none;stroke:black;stroke-width:4.17px;"/>
        </g>
        <g transform="matrix(1.938,0,0,1.43732,-703.433,81.1419)">
            <path d="M785,770C779.469,781.373 781.708,791.392 785,801" style="fill:none;stroke:black;stroke-width:4.17px;"/>
        </g>
        <g transform="matrix(1.938,0,0,1.43732,-703.433,81.1419)">
            <path d="M782,804C797.568,803.928 791.707,803.968 827,787C830.119,785.5 836.81,785.468 844,785C835.644,785.573 832.658,783.837 829.5,782C823.159,778.313 795.69,763.74 784,768" style="fill:none;stroke:black;stroke-width:4.17px;"/>
        </g>
        <g transform="matrix(1.938,0,0,1.43732,-703.433,81.1419)">
            <path d="M786,708C846.895,704.852 846.155,706.706 873,728C839.062,720.529 810.641,717.788 788,720" style="fill:none;stroke:black;stroke-width:4.17px;"/>
        </g>
        <g transform="matrix(1.938,0,0,1.43732,-703.433,81.1419)">
            <path d="M640,1003C647.218,990.79 669.363,986.47 700.682,987" style="fill:none;stroke:black;stroke-width:4.17px;"/>
        </g>
        <g transform="matrix(1.938,0,0,1.43732,-703.433,81.1419)">
            <path d="M640,1015C646.552,1023.08 661.168,998.471 690.319,991.043C701.098,988.296 712.553,986.238 728,982C708.279,987.321 698.402,987.247 688,980.889C655.547,961.053 650.063,963.407 643,973" style="fill:none;stroke:black;stroke-width:4.17px;"/>
        </g>
        <g transform="matrix(1.938,0,0,1.43732,-703.433,81.1419)">
            <path d="M688,800C687.383,776.689 677.611,776.008 661.5,791C656.971,795.214 646.49,834.146 645,854" style="fill:none;stroke:black;stroke-width:4.17px;"/>
        </g>
        <g transform="matrix(1.938,0,0,1.43732,-703.433,81.1419)">
            <path d="M779,709C781.249,760.278 775.63,796.148 768.561,823.395C762.949,845.025 733.654,873.861 714.452,863C689.725,849.014 703.755,762.638 714.452,748C744.321,707.126 778.229,691.416 779,709Z" style="fill:none;stroke:black;stroke-width:4.17px;"/>
        </g>
        <g transform="matrix(1.938,0,0,1.43732,-703.433,81.1419)">
            <path d="M661,912.937C655.185,905.714 647.273,904.044 645,895C657.559,893.932 672.049,902.969 678,911C670.806,913.391 668.179,912.565 661,912.937Z" style="fill:none;stroke:black;stroke-width:4.17px;"/>
        </g>
        <g transform="matrix(1.938,0,0,1.43732,-703.433,81.1419)">
            <path d="M714,892C716.536,909.774 708.293,918.693 692,921" style="fill:none;stroke:black;stroke-width:4.17px;"/>
        </g>
        <g transform="matrix(1.938,0,0,1.43732,-703.433,81.1419)">
            <path d="M1074,908C1072.27,926.183 1044.33,929.353 1049,943C1053.88,957.277 1075.42,936.836 1080,945.9" style="fill:none;stroke:black;stroke-width:4.17px;"/>
        </g>
        <g transform="matrix(1.938,0,0,1.43732,-703.433,81.1419)">
            <path d="M1109,889C1109.56,905.522 1125.35,906.864 1124,931C1123.13,946.555 1103.2,948.009 1102,944" style="fill:none;stroke:black;stroke-width:4.17px;"/>
        </g>
        <g transform="matrix(1.938,0,0,1.43732,-703.433,81.1419)">
            <path d="M1094.58,903C1092.25,896.994 1093.23,803.174 1146,841C1197.34,877.802 1139.31,946.139 1107,965" style="fill:none;stroke:black;stroke-width:4.17px;"/>
        </g>
        <g transform="matrix(1.938,0,0,1.43732,-703.433,81.1419)">
            <path d="M1032,929C1033.13,943.597 1024.15,956.687 1019.79,968.17C1013.61,984.436 1013.66,996.475 1029,1006C1036.5,1010.65 1048.87,998.736 1069.68,994.459C1102.47,987.717 1117.48,976.163 1133,963C1194.01,911.243 1191.58,873.428 1167,840C1128.57,787.729 1086.49,842.325 1067,852" style="fill:none;stroke:black;stroke-width:4.17px;"/>
        </g>
        <g transform="matrix(1.938,0,0,1.43732,-703.433,81.1419)">
            <path d="M887,1114C998.174,1085.71 976.139,1096.48 1029,1014" style="fill:none;stroke:black;stroke-width:4.17px;"/>
        </g>
        <g transform="matrix(1.938,0,0,1.43732,-703.433,81.1419)">
            <path d="M1091,823L811,743L811,735L783,725L784,741L811,752L811,743" style="fill:none;stroke:black;stroke-width:4.17px;"/>
        </g>
        <g transform="matrix(1.938,0,0,1.43732,-703.433,81.1419)">
            <path d="M829,1123C779.6,1128.46 661.725,1160.48 642,1108C628.164,1071.19 650.72,1067.65 644,1036C641.306,1023.31 633.601,1007.19 643,997.5C643,997.5 635.834,976.987 649,964C662.166,951.013 645.866,924.979 634,912.937C622.134,900.895 607.465,874.875 649,854C690.535,833.125 693.006,779.256 694,763C699.585,671.638 788.377,578.876 887,570" style="fill:none;stroke:black;stroke-width:4.17px;"/>
        </g>
        <g transform="matrix(1.938,0,0,1.43732,-703.433,81.1419)">
            <path d="M896,1295C917.07,1227.84 951.722,1154.73 1003,1081" style="fill:none;stroke:black;stroke-width:4.17px;"/>
        </g>
        <g transform="matrix(1.938,0,0,1.43732,-703.433,81.1419)">
            <path d="M862,1313C855.739,1191.85 786.181,1157.09 690,1138" style="fill:none;stroke:black;stroke-width:4.17px;"/>
        </g>
        <g transform="matrix(1.938,0,0,1.43732,-703.433,81.1419)">
            <path d="M871,1313C1035.1,1195.48 1084.1,1254.24 1210.18,1246.78C1211.12,1246.72 1212.06,1246.93 1213,1247L1239,1294L1217,1296" style="fill:none;stroke:black;stroke-width:4.17px;"/>
        </g>
        <g transform="matrix(1.938,0,0,1.43732,-703.433,81.1419)">
            <path d="M1111,1722.94L1114,1646L1055,1511" style="fill:none;stroke:black;stroke-width:4.17px;"/>
        </g>
        <g transform="matrix(1.938,0,0,1.43732,-703.433,81.1419)">
            <path d="M562,1679L773,1545L1114,1644" style="fill:none;stroke:black;stroke-width:4.17px;"/>
        </g>
        <g transform="matrix(1.938,0,0,1.43732,-703.433,81.1419)">
            <path d="M773,1545C802.213,1362.78 812.614,1399.91 997.441,1279" style="fill:none;stroke:black;stroke-width:4.17px;"/>
        </g>
        <g transform="matrix(1.938,0,0,1.43732,-703.433,81.1419)">
            <path d="M554,1722.94C637.843,1244.1 746.002,1375.3 997.441,1279C1090.55,1285.51 1159.81,1293.62 1217,1295C1235,1369.04 1291.41,1425.18 1325,1457C1374.32,1503.73 1416,1722.94 1416,1722.94" style="fill:none;stroke:black;stroke-width:4.17px;"/>
        </g>
        <g transform="matrix(4.10578,0,0,2.87055,-2976.37,-1329.16)">
            <path d="M1045,981C1045.24,979.287 1047.43,978.003 1048,980C1048.65,981.218 1048.7,982.233 1048,983C1047.56,983.606 1046.89,983.935 1046,984C1046,984 1044.61,983.782 1045,981Z" style="fill:rgb(195,195,195);stroke:rgb(195,195,195);stroke-width:2.02px;"/>
        </g>
        <g transform="matrix(4.10578,0,0,2.87055,-2900.79,-1346.41)">
            <path d="M1045,981C1045.24,979.287 1047.43,978.003 1048,980C1048.65,981.218 1048.7,982.233 1048,983C1047.56,983.606 1046.89,983.935 1046,984C1046,984 1044.61,983.782 1045,981Z" style="fill:rgb(195,195,195);stroke:rgb(195,195,195);stroke-width:2.02px;"/>
        </g>
        <g transform="matrix(3.57965,-1.49135,0.570574,0.753308,-2842.27,2266.09)">
            <path d="M1045,981C1045.24,979.287 1047.43,978.003 1048,980C1048.65,981.218 1048.7,982.233 1048,983C1047.56,983.606 1046.89,983.935 1046,984C1046,984 1044.61,983.782 1045,981Z" style="fill:rgb(195,195,195);stroke:rgb(195,195,195);stroke-width:2.68px;"/>
        </g>
    </g>
</svg>
