<?xml version="1.0" encoding="UTF-8" standalone="no"?>
<!DOCTYPE svg PUBLIC "-//W3C//DTD SVG 1.1//EN" "http://www.w3.org/Graphics/SVG/1.1/DTD/svg11.dtd">
<svg width="100%" height="100%" viewBox="0 0 1182 1182" version="1.1" xmlns="http://www.w3.org/2000/svg" xmlns:xlink="http://www.w3.org/1999/xlink" xml:space="preserve" xmlns:serif="http://www.serif.com/" style="fill-rule:evenodd;clip-rule:evenodd;stroke-linejoin:round;stroke-miterlimit:2;">
    <g id="Plan-de-travail2" serif:id="Plan de travail2" transform="matrix(0.924693,0,0,0.996129,-8814.13,-196.04)">
        <g>
            <g>
                <clipPath id="_clip1">
                    <rect x="9531.92" y="196.806" width="1277.29" height="1185.69"/>
                </clipPath>
                <g clip-path="url(#_clip1)">
                    <g transform="matrix(0.967004,0,0,0.958125,3304.77,115.147)">
                        <g id="logo.svg">
                            <g>
                                <g>
                                    <g>
                                        <rect id="Plan-de-travail1" serif:id="Plan de travail1" x="6442.4" y="48.103" width="1317.1" height="1274.15" style="fill:none;"/>
                                        <g id="Plan-de-travail11" serif:id="Plan de travail1">
                                            <g transform="matrix(1.381,0,0,1.29385,5579.15,-905.813)">
                                                <path d="M1210.5,909.988L1387.89,1281.21C1401.89,1309.45 1394.43,1323.89 1363.01,1322.92L1013.91,1323.66C975.654,1324.72 963.499,1305.52 973.626,1278.56L1157.78,909.972C1173.41,875.913 1190.72,871.376 1210.5,909.988Z" style="fill:white;"/>
                                            </g>
                                            <g transform="matrix(1.381,0,0,-1.29385,5286.21,2324.87)">
                                                <path d="M1210.5,909.988L1387.89,1281.21C1401.89,1309.45 1394.43,1323.89 1363.01,1322.92L1013.91,1323.66C975.654,1324.72 963.499,1305.52 973.626,1278.56L1157.78,909.972C1173.41,875.913 1190.72,871.376 1210.5,909.988Z" style="fill:white;"/>
                                            </g>
                                            <g transform="matrix(1.381,0,0,-1.29385,5286.21,2318.25)">
                                                <path d="M1333.99,1168.41L1226.04,1168.18C1187.78,1167.12 1175.62,1186.33 1185.75,1213.28L1240.66,1323.18L1363.01,1322.92C1394.43,1323.89 1401.89,1309.45 1387.89,1281.21L1333.99,1168.41Z" style="fill:white;"/>
                                            </g>
                                            <g transform="matrix(1.381,0,0,1.29385,5579.15,-907.727)">
                                                <path d="M1210.5,909.988L1387.89,1281.21C1401.89,1309.45 1394.43,1323.89 1363.01,1322.92L1013.91,1323.66C975.654,1324.72 963.499,1305.52 973.626,1278.56L1157.78,909.972C1173.41,875.913 1190.72,871.376 1210.5,909.988Z" style="fill:rgb(255,217,0);fill-opacity:0.7;"/>
                                            </g>
                                            <g transform="matrix(1.381,0,0,-1.29385,5286.21,2324.28)">
                                                <path d="M1210.5,909.988L1387.89,1281.21C1401.89,1309.45 1394.43,1323.89 1363.01,1322.92L1013.91,1323.66C975.654,1324.72 963.499,1305.52 973.626,1278.56L1157.78,909.972C1173.41,875.913 1190.72,871.376 1210.5,909.988Z" style="fill:rgb(255,217,0);fill-opacity:0.7;"/>
                                            </g>
                                            <g transform="matrix(1.381,0,0,-1.29385,5286.21,2324.28)">
                                                <path d="M1333.99,1168.41L1226.04,1168.18C1187.78,1167.12 1175.62,1186.33 1185.75,1213.28L1240.66,1323.18L1363.01,1322.92C1394.43,1323.89 1401.89,1309.45 1387.89,1281.21L1333.99,1168.41Z" style="fill:rgb(255,217,0);fill-opacity:0.7;"/>
                                            </g>
                                        </g>
                                    </g>
                                </g>
                            </g>
                        </g>
                    </g>
                </g>
            </g>
        </g>
    </g>
</svg>
